<svg id="SvgjsSvg1013" width="288" height="288" xmlns="http://www.w3.org/2000/svg" version="1.1" xmlns:xlink="http://www.w3.org/1999/xlink" xmlns:svgjs="http://svgjs.com/svgjs"><defs id="SvgjsDefs1014"></defs><g id="SvgjsG1015"><svg xmlns="http://www.w3.org/2000/svg" enable-background="new 0 0 512 512" viewBox="0 0 512 512" width="288" height="288"><path fill="#ffc400" d="M304.285,356.144c-5.807,0.838-9.836,6.226-8.998,12.034c4.417,30.605-10.51,61.88-39.287,75.702
				c-28.774-13.821-43.704-45.095-39.287-75.702c0.838-5.809-3.191-11.196-8.998-12.034c-5.801-0.839-11.197,3.191-12.034,8.998
				c-6.148,42.625,17.08,84.285,56.326,100.197c2.558,1.038,5.424,1.04,7.985,0c38.946-15.791,62.523-57.229,56.326-100.197
				C315.481,359.334,310.086,355.306,304.285,356.144z" class="colordc5461 svgShape"></path><path fill="#ffffff" d="M510.249,301.951c-12.359-31.102-36.046-57.151-65.817-72.764
				c11.887-32.91,11.984-69.958-2.315-103.778c-1.077-2.545-3.103-4.572-5.649-5.648c-35.278-14.92-76.114-14.568-112.03,0.961
				c-5.386,2.329-7.865,8.583-5.536,13.969c2.329,5.386,8.585,7.865,13.969,5.536c29.254-12.65,62.276-13.51,91.292-2.508
				c17.025,44.701,5.734,95.605-29.331,130.67c-36.143,36.144-89.016,47.017-134.695,27.7c-0.184-0.077-0.967-0.353-1.074-0.385
				c-0.078-0.024-0.894-0.23-1.02-0.255c-0.022-0.004-0.8-0.122-0.875-0.131c-0.272-0.03-0.923-0.063-1.038-0.064
				c-0.282-0.003-0.934,0.029-1.041,0.038c-0.278,0.024-1.004,0.131-1.155,0.16c-0.055,0.011-0.881,0.215-1.017,0.256
				c-0.12,0.036-0.935,0.33-1.055,0.38c-45.682,19.318-98.553,8.444-134.695-27.7c-35.05-35.05-46.362-85.951-29.331-130.67
				c29.017-11.003,62.038-10.141,91.292,2.508c5.381,2.329,11.64-0.148,13.969-5.536c2.329-5.386-0.15-11.64-5.536-13.969
				c-35.919-15.53-76.751-15.88-112.03-0.961c-2.546,1.076-4.572,3.102-5.649,5.648c-14.269,33.749-14.23,70.794-2.316,103.778
				c-29.774,15.616-53.46,41.667-65.817,72.768c-1.001,2.519-1.001,5.327,0,7.847c10.748,27.048,29.446,49.835,54.069,65.898
				c4.913,3.206,11.498,1.822,14.704-3.093c3.206-4.915,1.821-11.499-3.093-14.704c-19.725-12.867-34.967-30.791-44.29-52.022
				c10.69-24.259,29.608-44.578,53.107-57.237c31.125,57.943,96.465,88.139,158.602,74.956
				c-28.712,43.686-82.245,62.944-131.794,50.026c-5.677-1.483-11.482,1.923-12.962,7.602c-1.481,5.678,1.923,11.481,7.602,12.962
				c60.88,15.871,125.814-9.916,158.305-64.399c24.669,41.361,70.258,69,122.186,69c59.203,0,111.026-36.074,132.061-88.99
				C511.25,307.28,511.25,304.471,510.249,301.951z M378.188,377.54c-41.596,0-79.097-20.568-101.033-53.94
				c63.823,13.539,128.314-18.582,158.597-74.956c23.499,12.655,42.415,32.973,53.108,57.236
				C469.703,349.556,426.722,377.54,378.188,377.54z" class="color283954 svgShape"></path><path fill="#ffc400" d="M259.993,46.662c-2.561-1.04-5.425-1.04-7.985,0c-51.721,20.972-88.923,73.001-88.923,134.53
				c0,61.529,37.2,113.556,88.923,134.531c2.558,1.038,5.424,1.039,7.985,0.001c36.382-14.752,65.35-44.757,79.478-82.32
				c2.065-5.493-0.713-11.62-6.205-13.686c-5.499-2.063-11.619,0.714-13.686,6.205c-11.521,30.636-34.557,55.349-63.583,68.403
				c-43.679-19.58-71.663-63.508-71.663-113.134c0-49.629,27.983-93.558,71.666-113.135c43.683,19.576,71.666,63.505,71.666,113.135
				c0,2.296-0.054,4.388-0.164,6.397c-0.324,5.858,4.165,10.87,10.024,11.192c5.873,0.348,10.871-4.165,11.192-10.024
				C352.102,127.602,316.635,69.629,259.993,46.662z" class="colordc5461 svgShape"></path></svg></g></svg>