<?xml version="1.0" encoding="UTF-8"?>
<svg xmlns="http://www.w3.org/2000/svg" xmlns:xlink="http://www.w3.org/1999/xlink" viewBox="0 0 2500 2000">
  <defs>
    <style>
      .cls-1 {
        fill: url(#New_Pattern_2);
      }

      .cls-1, .cls-2, .cls-3, .cls-4 {
        stroke-width: 0px;
      }

      .cls-2 {
        fill: none;
      }

      .cls-5 {
        opacity: .64;
      }

      .cls-3 {
        fill: #df0091;
      }

      .cls-4 {
        fill: #fff;
      }
    </style>
    <pattern id="New_Pattern_2" data-name="New Pattern 2" x="0" y="0" width="451.88" height="766.21" patternTransform="translate(7.72 9.65)" patternUnits="userSpaceOnUse" viewBox="0 0 451.88 766.21">
      <g>
        <rect class="cls-2" width="451.88" height="766.21"/>
        <g>
          <path class="cls-3" d="m385.33,708.2c-19.16-1.24-37.99-6.62-54.88-15.76-2.06-1.12-4.09-2.29-6.08-3.51-2.08-1.28-4.26-2.63-5.4-4.88-1.14-2.25-1.25-4.84-1.4-7.32-.14-2.44-.17-4.88-.09-7.32.31-9.22,2.16-18.37,5.46-26.99-1.35-.37-2.67-.82-3.95-1.33-7.91-3.17-14.91-8.61-19.29-15.99-4.62-7.8-5.48-17.03-3.46-25.77,1.01-4.36,2.72-8.58,4.81-12.53,2.05-3.88,4.49-7.71,7.55-10.87,5.46-5.65,12.81-8.8,20.6-9.39,7.79-.59,15.64,1.46,22.61,4.82,1.75.84,3.44,1.78,5.08,2.81,1.69,1.06,3.49,2.17,5.58,1.9,1.42-.18,3.04-1.53,4.3-2.62,1.67-1.46,3.35-2.91,5.23-4.09,7.32-4.59,16.64-5.81,24.97-3.64,8.3,2.16,15.27,7.91,19.09,15.58,3.05,6.12,4.24,13.19,3.07,19.92,5.45-.73,11.09-.14,16.25,1.69,11.97,4.26,21.35,14.94,20.95,28.1-.33,10.92-6.88,21.95-17.21,25.92,1.44,4.76,1.5,9.82.17,14.68-2.94,10.74-12.08,19.03-23.41,19.46-3.81.14-7.57-.57-11.05-1.97.36.74.4,1.65-.15,2.58-1.31,2.23-2.15,4.57-2.63,7.11-.44,2.33-1.5,4.49-3.16,6.21-1.54,1.6-3.64,2.78-5.83,3.2-2.52.48-5.2.17-7.73,0Zm-59.82-71.14c6.16,1.49,12.5,1.01,17.86-2.5.25-.96.93-1.76,2-2.06,1.45-.4,3.29.49,3.6,2.04.89,4.43,1.91,9.42,5.11,12.81,3.11,3.31,7.53,3.34,11.27,1.14,2.15-1.27,5.07.84,4.3,3.3-.09.3-.18.6-.24.9-.03.13-.05.26-.07.4-.02.59-.06,1.17-.03,1.76.01.23.04.46.06.69.01.05.07.48.1.63.14.69.32,1.37.54,2.04.11.33.23.64.34.97.05.13.07.2.08.23,0,.02.03.06.07.15.26.57.53,1.13.83,1.68.35.64.73,1.27,1.14,1.87.15.23.31.46.48.68.1.14.2.27.3.41.03.03.05.07.09.11,1.85,2.26,3.54,3.77,5.83,5.07,1.42.81,1.92,1.03,3.49,1.47.37.1.74.19,1.11.27.16.03.65.12.75.14.1,0,.6.06.77.07.34.02.68.03,1.03.03,1.64,0,2.31-.1,3.92-.57,1.58-.46,2.83-1.08,4.33-2.01,3.21-1.98,6.15,3.08,2.95,5.05-.41.25-.83.49-1.25.72,1.91,3.44,5.05,6.29,8.68,8.19,7.67,4,17.16,3.23,23.32-3.1,2.97-3.05,4.9-6.87,5.78-11.17.79-3.82.43-8.4-1.21-11.95-.75-1.63-.24-3.83,1.75-4.3,5.33-1.25,9.59-4.72,12.39-9.41,2.53-4.22,3.75-8.95,3.51-13.87-.07-1.52-.15-2.09-.5-3.56-.14-.61-.31-1.22-.5-1.81-.1-.3-.2-.6-.31-.89.01.03-.18-.45-.22-.56-1.07-2.48-2.53-4.64-4.22-6.47-7.2-7.75-18.81-10.71-28.81-7.82-2.04.59-4.35-1.47-3.6-3.6.56-1.59,1.08-3.64,1.26-5.04.87-7-1.18-14.43-5.62-19.82-4.76-5.78-11.73-8.85-19.11-8.86-3.6,0-7.24.67-10.52,2.11-1.71.75-3.35,1.69-4.86,2.8-1.55,1.14-3.02,2.63-4.6,3.84-1.79,1.37-3.75,2.37-6.02,2.61-2.38.25-4.85-.41-6.96-1.49-1.68-.86-3.22-2-4.88-2.9-1.49-.8-3.19-1.62-4.54-2.16-3.27-1.31-6.72-2.3-10.22-2.76-.11-.01-.36-.04-.43-.05-.22-.02-.43-.05-.65-.07-.38-.04-.76-.07-1.13-.09-.86-.05-1.72-.08-2.58-.07-1.67.01-3.36.16-4.62.38-6.64,1.17-12.36,4.56-16.4,10.08-4.6,6.3-8.35,14.07-9.21,21.76-.87,7.8,1.12,15.47,6.31,21.56,4.67,5.48,11.03,9.29,17.98,10.97Zm51.07,64.4c1.98-7.92,3.08-16.04,3.26-24.21.01-.45.19-.79.45-1.03-4.92-1.61-9.13-5.02-12.24-9.24-2.37-3.21-4.28-7.38-4.6-11.54-4.44.98-9.15.05-12.71-3.16-3.36-3.03-5.16-7.23-6.34-11.55-.7.37-1.42.71-2.16,1.02-4.25,1.77-8.91,2.25-13.49,1.78-3.5,8.98-5.42,18.52-5.47,28.17-.01,2.29.07,4.58.26,6.85.15,1.77.48,3.16,2,4.2,3.02,2.05,6.24,3.83,9.5,5.51-.01-1.87,0-3.74.05-5.61.26-9.76,1.34-19.5,3.19-29.08.15-.78,1.08-1.22,1.8-1.02.8.22,1.17,1.02,1.02,1.8-.52,2.69-.98,5.38-1.37,8.09-1.31,9.03-1.87,18.18-1.75,27.3,5.36,2.62,10.9,4.85,16.58,6.69.04-1.9.09-3.79.18-5.69.44-9.3,1.5-18.56,3.14-27.72.14-.78,1.09-1.22,1.8-1.02.81.22,1.16,1.02,1.02,1.8-.45,2.54-.86,5.09-1.23,7.64-1.22,8.57-1.87,17.23-2.01,25.89,1.32.39,2.64.77,3.97,1.12,4.99,1.31,10.04,2.32,15.14,3.01Zm2.92.36c2.59.29,5.19.51,7.8.64,1.15.06,2.31.13,3.46.12.77,0,1.04-.04,1.86-.32.97-.32,2.19-1.27,2.78-2.23.89-1.46,1.01-3.27,1.54-5.1.62-2.16,1.54-4.26,2.69-6.2.44-.75,1.05-1.16,1.71-1.32-4.41-2.52-8.12-6.22-10.5-10.76-1.82.44-3.69.65-5.57.53-.87-.06-1.72-.17-2.55-.33.03.12.05.25.04.39-.18,8.28-1.28,16.53-3.26,24.57Z"/>
          <path class="cls-3" d="m345.65,628.63c-.25-7.01,1.86-13.92,5.95-19.63.46-.64.11-1.63-.52-2-.74-.43-1.54-.12-2,.52-4.36,6.08-6.61,13.62-6.35,21.1.07,1.88,2.99,1.89,2.92,0Z"/>
          <path class="cls-3" d="m372.17,645.5c.73.39,1.55.16,2-.52,1.43-2.17,2.87-4.34,4.3-6.51.42-.64.15-1.65-.52-2-.73-.39-1.55-.16-2,.52-1.43,2.17-2.87,4.34-4.3,6.51-.42.64-.15,1.65.52,2Z"/>
          <path class="cls-3" d="m403.42,667.04c6.11-4.42,10.61-10.84,12.56-18.14.49-1.82-2.33-2.6-2.82-.78-1.74,6.53-5.73,12.43-11.22,16.39-.64.46-.95,1.27-.52,2,.37.63,1.36.99,2,.52Z"/>
          <path class="cls-3" d="m414.91,661.59c-.36-.08-.81-.08-1.13.15-.83.59-1.66,1.17-2.49,1.76-.17.09-.31.22-.41.38-.13.14-.22.31-.26.5-.1.35-.05.82.15,1.13.2.31.5.59.87.67.36.08.81.08,1.13-.15.83-.59,1.66-1.17,2.49-1.76.17-.09.31-.22.41-.38.13-.14.22-.31.26-.5.1-.35.05-.82-.15-1.13-.2-.31-.5-.59-.87-.67Z"/>
          <path class="cls-3" d="m324.84,582.61c-.44-.68-1.28-.92-2-.52-2.29,1.24-4.57,2.48-6.86,3.72-.67.37-.94,1.35-.52,2,.44.68,1.28.92,2,.52,2.29-1.24,4.57-2.48,6.86-3.72.67-.37.94-1.35.52-2Z"/>
          <path class="cls-3" d="m325.75,590.98c.04-.19.03-.39-.03-.58-.11-.35-.33-.69-.67-.87-.12-.05-.23-.1-.35-.15-.26-.07-.52-.07-.78,0-.62.11-1.24.23-1.86.34-.19.05-.36.13-.5.26-.16.1-.28.24-.38.41-.11.17-.16.35-.17.54-.04.19-.03.39.03.58.11.35.33.7.67.87.12.05.23.1.35.15.26.07.52.07.78,0,.62-.11,1.24-.23,1.86-.34.19-.05.36-.13.5-.26.16-.1.28-.24.38-.41.11-.17.16-.35.17-.54Z"/>
          <path class="cls-3" d="m421.61,634.5c.8-.04,1.45-.64,1.46-1.46.03-2.41.05-4.82.08-7.23,0-.77-.68-1.5-1.46-1.46-.8.04-1.45.64-1.46,1.46-.03,2.41-.05,4.82-.08,7.23,0,.77.68,1.5,1.46,1.46Z"/>
          <path class="cls-3" d="m427.37,635.03c.79.18,1.56-.24,1.8-1.02.96-3.12,1.12-6.4.54-9.6-.13-.75-1.1-1.25-1.8-1.02-.81.26-1.17.99-1.02,1.8.12.66.17,1.1.22,1.87.04.73.04,1.46,0,2.19-.08,1.34-.32,2.58-.76,3.99-.23.73.27,1.63,1.02,1.8Z"/>
          <path class="cls-3" d="m324.05,755.97c.19.14.29.36.29.59,0,.23-.11.45-.3.59-4.1,3.05-7.27,7.15-9.16,11.88-.11.28-.41.45-.68.46-.3,0-.57-.18-.68-.46-1.9-4.73-5.08-8.84-9.19-11.88-.19-.14-.3-.36-.3-.59,0-.23.11-.45.29-.59,4.11-3.05,7.29-7.16,9.19-11.89.11-.28.38-.46.68-.46h0c.3,0,.57.18.68.46,1.88,4.72,5.05,8.83,9.16,11.89Zm-1.64.59c-3.51-2.8-6.31-6.35-8.2-10.37-1.9,4.03-4.72,7.58-8.23,10.37,3.51,2.78,6.32,6.32,8.23,10.36,1.89-4.03,4.7-7.58,8.2-10.36Z"/>
          <path class="cls-3" d="m281.26,759.09c-1.94,1.44-3.44,3.38-4.33,5.61-.11.28-.38.46-.68.46h0c-.3,0-.57-.18-.68-.46-.9-2.24-2.4-4.18-4.34-5.61-.19-.14-.3-.36-.3-.59,0-.23.11-.45.29-.59,1.94-1.44,3.44-3.38,4.34-5.62.11-.28.4-.46.68-.46.3,0,.57.18.68.46.89,2.23,2.39,4.17,4.33,5.62.18.14.29.36.29.59,0,.23-.11.45-.29.59Zm-1.61-.59c-1.39-1.18-2.54-2.61-3.4-4.21-.86,1.6-2.01,3.03-3.41,4.21,1.39,1.18,2.55,2.6,3.41,4.2.86-1.6,2.01-3.02,3.4-4.2Z"/>
          <path class="cls-3" d="m273.41,697.28c0-2.86,2.33-5.19,5.19-5.19s5.18,2.33,5.18,5.19-2.33,5.19-5.18,5.19-5.19-2.33-5.19-5.19Zm2.92,0c0,1.25,1.01,2.26,2.26,2.26s2.26-1.01,2.26-2.26-1.01-2.26-2.26-2.26-2.26,1.01-2.26,2.26Z"/>
          <path class="cls-3" d="m456.74,728.5c0,2.86-2.33,5.18-5.18,5.18s-5.19-2.33-5.19-5.18,2.33-5.19,5.19-5.19,5.18,2.33,5.18,5.19Zm-2.92,0c0-1.25-1.01-2.26-2.26-2.26s-2.26,1.01-2.26,2.26,1.01,2.26,2.26,2.26,2.26-1.01,2.26-2.26Z"/>
        </g>
        <g>
          <path class="cls-3" d="m162.4,721.03c-2.38,13.09-7.3,25.91-15.13,36.72-3.54,4.82-7.83,8.97-12.89,12.18-4.61,2.93-9.76,4.93-15.06,5.83-.02.14-.03.28-.07.41-1.67,5.48-2.85,11.1-4.45,16.6,4.78,4.95,6.07,12.37,5.45,19.01-.63,6.81-2.83,13.31-5.44,19.6-2.41,5.8-5.61,12.01-11.52,14.91-5.47,2.68-12.01,2.26-17.53-.05-4.93-2.07-9.6-5.87-11.13-11.19-1.06-3.7-.98-7.8-.72-11.6.33-4.95,1.11-9.9,2.32-14.71,1.15-4.59,2.7-9.21,5.05-13.34,1.91-3.34,4.58-6.61,8.39-7.77.17-.05.34-.08.5-.1,1.47-5.49,3.21-10.91,4.1-16.53-8.03-4.89-13.96-12.57-17.36-21.46-5.18-13.56-3.87-28.19-.31-41.96,3.05-11.78,7.68-23.46,15.25-33.09,5.43-6.9,15.28-15.58,24.39-9.53,1.92,1.27,3.45,2.89,4.68,4.71,1.52-1.32,3.17-2.44,5.01-3.16,3.83-1.51,7.75-.36,10.75,2.28,1.98,1.75,3.46,3.99,4.68,6.36,1.51-.86,3.13-1.5,4.85-1.78,4.6-.76,9.34.86,12.36,4.46,2.85,3.4,4.22,7.78,4.9,12.1,1.6,10.2.76,21-1.08,31.1Zm-38.74-45.77c.61,1.79,1.07,3.65,1.39,5.5.72,4.08,1.16,8.21,1.41,12.35.11-.2.21-.4.32-.6,2.39-4.34,5.08-8.59,8.42-12.26.46-.5.94-.99,1.43-1.47-.16-.33-.31-.66-.48-.99-.42-.79-.88-1.56-1.38-2.31-.18-.27-.38-.54-.57-.8.01.04-.54-.65-.66-.77-.29-.32-.6-.62-.92-.91-.1-.09-.22-.18-.32-.27-.01-.01-.01-.02-.03-.03-.01,0-.02,0-.03-.02-.28-.17-.55-.37-.84-.53-.13-.07-.26-.13-.39-.2-.34-.09-.7-.19-1.04-.29,0,0,0,0-.01,0-.12,0-.26-.01-.39-.01-.18,0-.35.02-.53.02-.38.09-.76.22-1.13.31-.04,0-.06.01-.08.02-.02.01-.04.02-.07.04-.22.12-.44.22-.66.34-.39.22-.76.46-1.12.71-.05.04-.1.07-.13.09-.23.18-.45.37-.66.56-.41.37-.81.75-1.19,1.15-.12.12-.23.24-.34.36Zm-1.12,74.35c4.45-2.19,7.55-7.17,9.83-11.32,5.26-9.57,7.93-20.76,8.69-31.61.54-7.6.1-14.76-2.09-21.9-2.41,2.72-4.31,5.72-6.24,9.08-1.93,3.36-3.63,6.83-5.35,10.3-.22.45-.45.9-.67,1.36-.08,6.85-.45,13.71-1.09,20.52-.35,3.76-.83,7.51-1.07,11.27-.16,2.53,0,5.06-.37,7.58-.24,1.66-.76,3.3-1.65,4.71Zm-3.96-68.3c-3.41,4.61-6.3,9.61-8.62,14.86-4.53,10.26-6.71,21.6-6.36,32.8.05,1.47.13,2.93.27,4.39.06.66.13,1.33.21,1.99.01.1.02.18.03.24,0,.03.01.07.02.12.03.17.06.34.09.51.19,1.03.45,2.06.76,3.06.16.5.33,1.01.52,1.5.05.13.1.26.15.39.02.03.23.53.23.54.45.97.95,1.92,1.54,2.82.62.95.63,1,1.45,1.85.33.34.67.67,1.04.97.08.05.38.27.41.29.22.14.44.27.66.39-.15-.76-.27-1.53-.37-2.29-.91-7.16.09-14.46,2.07-21.36,2.02-7.05,5.05-13.79,8.27-20.37.02-.04.04-.07.05-.11.04-6.99-.34-13.97-1.45-20.8-.13-.82-.28-1.64-.45-2.47-.17.23-.35.45-.52.68Zm-2.46,58.55c-.02,2.39-.03,5.11.64,7.5.15-.1.29-.21.4-.32.1-.1.2-.2.29-.31.03-.04.05-.08.09-.14.13-.21.25-.42.36-.64.03-.05.04-.08.06-.1.02-.05.03-.08.05-.15.1-.28.18-.57.26-.86.28-1.1.27-1.37.33-2.62.11-2.48.1-4.92.32-7.4.32-3.5.71-7,1.01-10.51.13-1.46.24-2.93.36-4.4-2.41,6.41-4.1,13.04-4.17,19.93Zm-1.56,68.63c-.02-2.95-.49-6-1.83-8.65-1.06-2.11-2.54-3.71-4.42-4.92-2.18-1.4-4.27-2.12-6.92-2.61-1.08-.2-2.09-.3-3.44-.33-.64-.01-1.28,0-1.91.03-.31.02-.63.04-.94.07,0,0-1.01.11-.45.04-.43.06-.86.05-1.26-.01-.2.05-.41.07-.62.08-.33.47-.83.86-1.53,1.07-.06.02-.12.04-.18.06.03-.01-.1.03-.22.08-.07.03-.14.05-.22.07.08-.02.13-.04.18-.06-.03.01-.06.03-.08.04-.35.2-.68.42-1.02.63,0,0,0,0,0,0-.01.01-.02.02-.03.03-.11.11-.23.2-.35.31-.33.3-.65.63-.94.96-.17.2-.34.4-.51.6,0,0,0,0,0,0-.27.39-.55.77-.8,1.17-.55.86-1.04,1.74-1.5,2.65-.26.52-.51,1.05-.75,1.58-.07.16-.14.31-.2.47,0,0,0,.01,0,.02-.1.24-.2.49-.29.73-.43,1.09-.82,2.2-1.18,3.32-.75,2.34-1.37,4.73-1.88,7.13-.24,1.12-.45,2.24-.64,3.37-.09.56-.18,1.12-.27,1.68-.03.21-.06.42-.09.63-.01.09-.06.49-.07.53-.25,2.01-.42,4.03-.49,6.06-.06,1.82-.05,3.65.12,5.46.01.13.03.25.04.38,0,.05.02.2.03.31,0,.03,0,.07.01.1,0-.04,0-.06,0-.09,0,.02,0,.05,0,.06.05.29.1.59.16.88.12.6.31,1.16.48,1.74,0,.01,0,.01,0,.02,0,0,0,0,0,0,.14.27.26.54.41.8.15.26.3.52.47.77,0-.01.32.45.33.49.66.85,1.46,1.62,2.3,2.3.28.22.23.18.67.49.26.18.53.35.8.52.46.28.93.54,1.4.78,1.1.56,1.91.86,3.24,1.24,2.3.65,4.26.88,6.81.61.36-.04.41-.05.14-.02.2-.03.4-.07.6-.11.3-.06.59-.13.88-.21.29-.08.57-.16.86-.26-.04.01.5-.19.55-.2,1-.43,2.11-1.13,2.78-1.7,2.58-2.18,4.31-5.13,5.71-8.23-.08-.05-.17-.09-.23-.16-1.88-2.02-4.11-3.66-6.27-5.37-.64-.51-.49-1.54,0-2.07.25-.27.68-.43,1.03-.43.42,0,.72.18,1.03.43,1.92,1.53,3.9,3.01,5.64,4.74.27-.68.53-1.36.79-2.03-2.16-2.12-4.17-4.37-6.54-6.27-.64-.51-.49-1.54,0-2.07.57-.62,1.47-.48,2.07,0,2.01,1.62,3.77,3.49,5.58,5.32.23-.65.45-1.31.67-1.97-2.42-2.3-4.85-4.23-7.68-6.03-.69-.44-.91-1.28-.52-2,.36-.68,1.35-.94,2-.52,2.52,1.6,4.9,3.42,7.13,5.42.86-3.27,1.43-6.6,1.41-9.98Zm-16.94-22.36c4.16.04,8.44.97,12.15,2.92,1.16-4.24,2.16-8.53,3.37-12.76-4.52.02-9.04-.79-13.35-2.53-.02,0-.04-.02-.06-.03-.76,4.2-1.95,8.3-3.1,12.41.33-.01.66-.02,1-.02Zm60.5-92.34c-.12-1.27-.17-1.66-.32-2.59-.16-.97-.35-1.93-.59-2.89-.25-1.01-.55-2.02-.92-2.99-.04-.1-.07-.19-.11-.29-.02-.03-.19-.43-.21-.47-.18-.39-.38-.77-.59-1.14-.25-.44-.53-.85-.8-1.27-.03-.05-.05-.08-.07-.11-.02-.02-.04-.04-.07-.08-.11-.12-.21-.25-.32-.37-.27-.3-.56-.57-.85-.86-.05-.04-.29-.24-.36-.29-.1-.07-.19-.14-.29-.2-.41-.27-.84-.5-1.28-.71,0,0,0,0-.01,0-.03,0-.05-.01-.1-.03-.25-.07-.49-.16-.74-.23-.15-.04-.86-.18-.95-.21-.36-.04-.72-.06-1.07-.06-.29,0-.57.02-.86.04-.02,0-.02,0-.04,0-.01,0-.02,0-.03,0-.4.09-.8.17-1.19.28-.13.04-.74.26-.85.29-.42.18-.83.39-1.22.61-.19.11-.37.23-.55.35,1.08,2.91,1.92,5.92,2.47,8.97,2.06,11.51.75,23.82-2.25,35.05-1.54,5.75-3.65,11.43-6.52,16.65-3.02,5.5-7.18,11.37-13.12,13.95-3.32,1.44-7.14,1.59-10.03-.83-.53.05-1.06.08-1.58.04-5-.33-8.75-3.97-11.06-8.17-2.56-4.63-3.42-9.64-3.75-14.87-.4-6.26.03-12.54,1.09-18.72,2.12-12.31,7.15-24.24,14.57-34.29,1.03-1.4,2.11-2.88,3.28-4.32-.99-1.73-2.32-3.31-3.75-4.2-.32-.2-.65-.38-.99-.55-.02,0-.06-.03-.1-.04-.4-.15-.8-.27-1.21-.36-.08-.02-.5-.07-.5-.07-.12,0-.24-.02-.36-.02-.41-.01-.83.01-1.24.06-.1.02-.28.05-.39.07-.25.06-.51.12-.76.19-.39.11-.78.25-1.16.4-.03.03-.77.37-.89.44-.42.22-.83.46-1.23.71-1.78,1.12-3.1,2.29-4.75,3.97-1.45,1.48-2.93,3.25-3.93,4.59-2.83,3.81-5.14,7.94-7.14,12.24-2.68,5.8-4.69,11.91-6.26,18.09-1.6,6.26-2.84,12.59-2.89,19.07-.08,11.08,2.89,22.56,10.22,30.84,6.74,7.62,16.47,11.87,26.76,10.89,10.21-.97,19.91-7.31,25.99-15.57,3.46-4.77,6.37-9.93,8.68-15.35,4.65-10.91,7.01-22.82,7.41-34.65.13-3.67.14-7.35-.2-11Z"/>
          <path class="cls-3" d="m172.32,740.19c-.69-.19-1.68.23-1.8,1.02-1.02,6.99-4.71,13.57-10.34,17.89-.63.48-.96,1.26-.52,2,.36.62,1.37,1.01,2,.52,6.23-4.77,10.55-11.84,11.69-19.64.11-.78-.19-1.57-1.02-1.8Z"/>
          <path class="cls-3" d="m179.84,747.49c-.83-.23-1.5.29-1.8,1.02-1.4,3.47-3.39,6.86-5.75,9.79-.49.61-.6,1.47,0,2.07.51.51,1.57.62,2.07,0,2.71-3.37,4.88-7.07,6.5-11.08.3-.73-.32-1.61-1.02-1.8Z"/>
          <path class="cls-3" d="m63.78,736.62c-.58,4.46-.08,9.05,1.42,13.29.26.74,1,1.24,1.8,1.02.72-.2,1.29-1.05,1.02-1.8-1.43-4.03-1.86-8.27-1.31-12.51.1-.78-.74-1.46-1.46-1.46-.87,0-1.36.68-1.46,1.46Z"/>
          <path class="cls-3" d="m62.09,752.76c.7-.23,1.31-1.03,1.02-1.8-1.09-2.91-1.46-5.72-1.17-8.81.07-.76-.72-1.5-1.46-1.46-.85.04-1.39.64-1.46,1.46-.3,3.23.14,6.55,1.28,9.59.27.71,1,1.28,1.8,1.02Z"/>
          <path class="cls-3" d="m-66.56,708.2c-19.16-1.24-37.99-6.62-54.88-15.76-2.06-1.12-4.09-2.29-6.08-3.51-2.08-1.28-4.26-2.63-5.4-4.88-1.14-2.25-1.25-4.84-1.4-7.32-.14-2.44-.17-4.88-.09-7.32.31-9.22,2.16-18.37,5.46-26.99-1.35-.37-2.67-.82-3.95-1.33-7.91-3.17-14.91-8.61-19.29-15.99-4.62-7.8-5.48-17.03-3.46-25.77,1.01-4.36,2.72-8.58,4.81-12.53,2.05-3.88,4.49-7.71,7.55-10.87,5.46-5.65,12.81-8.8,20.6-9.39,7.79-.59,15.64,1.46,22.61,4.82,1.75.84,3.44,1.78,5.08,2.81,1.69,1.06,3.49,2.17,5.58,1.9,1.42-.18,3.04-1.53,4.3-2.62,1.67-1.46,3.35-2.91,5.23-4.09,7.32-4.59,16.64-5.81,24.97-3.64,8.3,2.16,15.27,7.91,19.09,15.58,3.05,6.12,4.24,13.19,3.07,19.92,5.45-.73,11.09-.14,16.25,1.69,11.97,4.26,21.35,14.94,20.95,28.1-.33,10.92-6.88,21.95-17.21,25.92,1.44,4.76,1.5,9.82.17,14.68-2.94,10.74-12.08,19.03-23.41,19.46-3.81.14-7.57-.57-11.05-1.97.36.74.4,1.65-.15,2.58-1.31,2.23-2.15,4.57-2.63,7.11-.44,2.33-1.5,4.49-3.16,6.21-1.54,1.6-3.64,2.78-5.83,3.2-2.52.48-5.2.17-7.73,0Zm-59.82-71.14c6.16,1.49,12.5,1.01,17.86-2.5.25-.96.93-1.76,2-2.06,1.45-.4,3.29.49,3.6,2.04.89,4.43,1.91,9.42,5.11,12.81,3.11,3.31,7.53,3.34,11.27,1.14,2.15-1.27,5.07.84,4.3,3.3-.09.3-.18.6-.24.9-.03.13-.05.26-.07.4-.02.59-.06,1.17-.03,1.76.01.23.04.46.06.69.01.05.07.48.1.63.14.69.32,1.37.54,2.04.11.33.23.64.34.97.05.13.07.2.08.23,0,.02.03.06.07.15.26.57.53,1.13.83,1.68.35.64.73,1.27,1.14,1.87.15.23.31.46.48.68.1.14.2.27.3.41.03.03.05.07.09.11,1.85,2.26,3.54,3.77,5.83,5.07,1.42.81,1.92,1.03,3.49,1.47.37.1.74.19,1.11.27.16.03.65.12.75.14.1,0,.6.06.77.07.34.02.68.03,1.03.03,1.64,0,2.31-.1,3.92-.57,1.58-.46,2.83-1.08,4.33-2.01,3.21-1.98,6.15,3.08,2.95,5.05-.41.25-.83.49-1.25.72,1.91,3.44,5.05,6.29,8.68,8.19,7.67,4,17.16,3.23,23.32-3.1,2.97-3.05,4.9-6.87,5.78-11.17.79-3.82.43-8.4-1.21-11.95-.75-1.63-.24-3.83,1.75-4.3,5.33-1.25,9.59-4.72,12.39-9.41,2.53-4.22,3.75-8.95,3.51-13.87-.07-1.52-.15-2.09-.5-3.56-.14-.61-.31-1.22-.5-1.81-.1-.3-.2-.6-.31-.89.01.03-.18-.45-.22-.56-1.07-2.48-2.53-4.64-4.22-6.47-7.2-7.75-18.81-10.71-28.81-7.82-2.04.59-4.35-1.47-3.6-3.6.56-1.59,1.08-3.64,1.26-5.04.87-7-1.18-14.43-5.62-19.82-4.76-5.78-11.73-8.85-19.11-8.86-3.6,0-7.24.67-10.52,2.11-1.71.75-3.35,1.69-4.86,2.8-1.55,1.14-3.02,2.63-4.6,3.84-1.79,1.37-3.75,2.37-6.02,2.61-2.38.25-4.85-.41-6.96-1.49-1.68-.86-3.22-2-4.88-2.9-1.49-.8-3.19-1.62-4.54-2.16-3.27-1.31-6.72-2.3-10.22-2.76-.11-.01-.36-.04-.43-.05-.22-.02-.43-.05-.65-.07-.38-.04-.76-.07-1.13-.09-.86-.05-1.72-.08-2.58-.07-1.67.01-3.36.16-4.62.38-6.64,1.17-12.36,4.56-16.4,10.08-4.6,6.3-8.35,14.07-9.21,21.76-.87,7.8,1.12,15.47,6.31,21.56,4.67,5.48,11.03,9.29,17.98,10.97Zm51.07,64.4c1.98-7.92,3.08-16.04,3.26-24.21.01-.45.19-.79.45-1.03-4.92-1.61-9.13-5.02-12.24-9.24-2.37-3.21-4.28-7.38-4.6-11.54-4.44.98-9.15.05-12.71-3.16-3.36-3.03-5.16-7.23-6.34-11.55-.7.37-1.42.71-2.16,1.02-4.25,1.77-8.91,2.25-13.49,1.78-3.51,8.98-5.42,18.52-5.47,28.17-.01,2.29.07,4.58.26,6.85.15,1.77.48,3.16,2,4.2,3.02,2.05,6.24,3.83,9.5,5.51-.01-1.87,0-3.74.05-5.61.26-9.76,1.34-19.5,3.19-29.08.15-.78,1.08-1.22,1.8-1.02.8.22,1.17,1.02,1.02,1.8-.52,2.69-.98,5.38-1.37,8.09-1.31,9.03-1.87,18.18-1.75,27.3,5.36,2.62,10.9,4.85,16.58,6.69.04-1.9.09-3.79.18-5.69.44-9.3,1.5-18.56,3.14-27.72.14-.78,1.09-1.22,1.8-1.02.81.22,1.16,1.02,1.02,1.8-.45,2.54-.86,5.09-1.23,7.64-1.22,8.57-1.87,17.23-2.01,25.89,1.32.39,2.64.77,3.97,1.12,4.99,1.31,10.04,2.32,15.14,3.01Zm2.92.36c2.59.29,5.19.51,7.8.64,1.15.06,2.31.13,3.46.12.77,0,1.04-.04,1.86-.32.97-.32,2.19-1.27,2.78-2.23.89-1.46,1.01-3.27,1.54-5.1.62-2.16,1.54-4.26,2.69-6.2.44-.75,1.05-1.16,1.71-1.32-4.41-2.52-8.12-6.22-10.5-10.76-1.82.44-3.69.65-5.57.53-.87-.06-1.72-.17-2.55-.33.03.12.05.25.04.39-.18,8.28-1.28,16.53-3.26,24.57Z"/>
          <path class="cls-3" d="m55.31,602.6c.79-.04,1.46-.64,1.46-1.46v-4.6c0-.76-.67-1.5-1.46-1.46-.79.04-1.46.64-1.46,1.46v4.6c0,.76.67,1.5,1.46,1.46Z"/>
          <path class="cls-3" d="m56.78,609.54c0-.76-.67-1.5-1.46-1.46-.79.04-1.46.64-1.46,1.46v4.6c0,.76.67,1.5,1.46,1.46.79-.04,1.46-.64,1.46-1.46v-4.6Z"/>
          <path class="cls-3" d="m59.51,606.8h4.6c.76,0,1.5-.67,1.46-1.46-.04-.79-.64-1.46-1.46-1.46h-4.6c-.76,0-1.5.67-1.46,1.46.04.79.64,1.46,1.46,1.46Z"/>
          <path class="cls-3" d="m52.58,605.34c-.04-.79-.64-1.46-1.46-1.46h-4.6c-.76,0-1.5.67-1.46,1.46.04.79.64,1.46,1.46,1.46h4.6c.76,0,1.5-.67,1.46-1.46Z"/>
          <path class="cls-3" d="m4.86,728.5c0,2.86-2.33,5.18-5.18,5.18s-5.19-2.33-5.19-5.18,2.33-5.19,5.19-5.19,5.18,2.33,5.18,5.19Zm-2.92,0c0-1.25-1.01-2.26-2.26-2.26s-2.26,1.01-2.26,2.26,1.01,2.26,2.26,2.26,2.26-1.01,2.26-2.26Z"/>
        </g>
        <g>
          <path class="cls-3" d="m388.34,337.93c-2.38,13.09-7.3,25.91-15.13,36.72-3.54,4.82-7.83,8.97-12.89,12.18-4.61,2.93-9.76,4.93-15.06,5.83-.02.14-.03.28-.07.41-1.67,5.48-2.85,11.1-4.45,16.6,4.78,4.95,6.07,12.37,5.45,19.01-.63,6.81-2.83,13.31-5.44,19.6-2.41,5.8-5.61,12.01-11.52,14.91-5.47,2.68-12.01,2.26-17.53-.05-4.93-2.07-9.6-5.87-11.13-11.19-1.06-3.7-.98-7.8-.72-11.6.33-4.95,1.11-9.9,2.32-14.71,1.15-4.59,2.7-9.21,5.05-13.34,1.91-3.34,4.58-6.61,8.39-7.77.17-.05.34-.08.5-.1,1.47-5.49,3.21-10.91,4.1-16.53-8.03-4.89-13.96-12.57-17.36-21.47-5.18-13.56-3.87-28.19-.31-41.96,3.05-11.78,7.68-23.46,15.25-33.09,5.43-6.9,15.28-15.58,24.39-9.53,1.92,1.27,3.45,2.89,4.68,4.71,1.52-1.32,3.17-2.44,5.01-3.16,3.83-1.51,7.75-.36,10.75,2.28,1.98,1.75,3.46,3.99,4.68,6.36,1.51-.86,3.13-1.5,4.85-1.78,4.6-.76,9.34.86,12.36,4.46,2.85,3.4,4.22,7.78,4.9,12.1,1.6,10.2.76,21-1.08,31.1Zm-38.74-45.77c.61,1.79,1.07,3.65,1.39,5.5.72,4.08,1.16,8.21,1.41,12.35.11-.2.21-.4.32-.6,2.39-4.34,5.08-8.59,8.42-12.26.46-.5.94-.99,1.43-1.47-.16-.33-.31-.66-.48-.99-.42-.79-.88-1.56-1.38-2.31-.18-.27-.38-.54-.57-.8.01.04-.54-.65-.66-.77-.29-.32-.6-.62-.92-.91-.1-.09-.22-.18-.32-.27-.01-.01-.01-.02-.03-.03-.01,0-.02,0-.03-.02-.28-.17-.55-.37-.84-.53-.13-.07-.26-.13-.39-.2-.34-.09-.7-.19-1.04-.29,0,0,0,0-.01,0-.12,0-.26-.01-.39-.01-.18,0-.35.02-.53.02-.38.09-.76.22-1.13.31-.04,0-.06.01-.08.02-.02.01-.04.02-.07.04-.22.12-.44.22-.66.34-.39.22-.76.46-1.12.71-.05.04-.1.07-.13.09-.23.18-.45.37-.66.56-.41.37-.81.75-1.19,1.15-.12.12-.23.24-.34.36Zm-1.12,74.35c4.45-2.19,7.55-7.17,9.83-11.32,5.26-9.57,7.93-20.76,8.69-31.61.54-7.6.1-14.76-2.09-21.9-2.41,2.72-4.31,5.72-6.24,9.08-1.93,3.36-3.63,6.83-5.35,10.3-.22.45-.45.9-.67,1.36-.08,6.85-.45,13.71-1.09,20.52-.35,3.76-.83,7.51-1.07,11.27-.16,2.53,0,5.06-.37,7.58-.24,1.66-.76,3.3-1.65,4.71Zm-3.96-68.3c-3.41,4.61-6.3,9.61-8.62,14.86-4.53,10.26-6.71,21.6-6.36,32.8.05,1.47.13,2.93.27,4.39.06.66.13,1.33.21,1.99.01.1.02.18.03.24,0,.03.01.07.02.12.03.17.06.34.09.51.19,1.03.45,2.06.76,3.06.16.5.33,1.01.52,1.5.05.13.1.26.15.39.02.03.23.53.23.54.45.97.95,1.92,1.54,2.82.62.95.63,1,1.45,1.85.33.34.67.67,1.04.97.08.05.38.27.41.29.22.14.44.27.66.39-.15-.76-.27-1.53-.37-2.29-.91-7.16.09-14.46,2.07-21.36,2.02-7.05,5.05-13.79,8.27-20.37.02-.04.04-.07.05-.11.04-6.99-.34-13.97-1.45-20.8-.13-.82-.28-1.64-.45-2.47-.17.23-.35.45-.52.68Zm-2.46,58.55c-.02,2.39-.03,5.11.64,7.5.15-.1.29-.21.4-.32.1-.1.2-.2.29-.31.03-.04.05-.08.09-.14.13-.21.25-.42.36-.64.03-.05.04-.08.06-.1.02-.05.03-.08.05-.15.1-.28.18-.57.26-.86.28-1.1.27-1.37.33-2.62.11-2.48.1-4.92.32-7.4.32-3.5.71-7,1.01-10.51.13-1.46.24-2.93.36-4.4-2.41,6.41-4.1,13.04-4.17,19.93Zm-1.56,68.63c-.02-2.95-.49-6-1.83-8.65-1.06-2.11-2.54-3.71-4.42-4.92-2.18-1.4-4.27-2.12-6.92-2.61-1.08-.2-2.09-.3-3.44-.33-.64-.01-1.28,0-1.91.03-.31.02-.63.04-.94.07,0,0-1.01.11-.45.04-.43.06-.86.05-1.26-.01-.2.05-.41.07-.62.08-.33.47-.83.86-1.53,1.07-.06.02-.12.04-.18.06.03-.01-.1.03-.22.08-.07.03-.14.05-.22.08.08-.02.13-.04.18-.06-.03.01-.06.03-.08.04-.35.2-.68.42-1.02.63,0,0,0,0,0,0-.01.01-.02.02-.03.03-.11.11-.23.2-.35.31-.33.3-.65.63-.94.96-.17.2-.34.4-.51.6,0,0,0,0,0,0-.27.39-.55.77-.8,1.17-.55.86-1.04,1.74-1.5,2.65-.26.52-.51,1.05-.75,1.58-.07.15-.14.31-.2.47,0,0,0,.01,0,.02-.1.24-.2.49-.29.73-.43,1.09-.82,2.2-1.18,3.32-.75,2.34-1.37,4.73-1.88,7.13-.24,1.12-.45,2.24-.64,3.37-.09.56-.18,1.12-.27,1.68-.03.21-.06.42-.09.63-.01.09-.06.49-.07.53-.25,2.01-.42,4.03-.49,6.06-.06,1.82-.05,3.65.12,5.46.01.13.03.25.04.38,0,.05.02.2.03.31,0,.03,0,.07.01.1,0-.04,0-.06,0-.09,0,.02,0,.05,0,.06.05.29.1.59.16.88.12.6.31,1.16.48,1.74,0,.01,0,.01,0,.02,0,0,0,0,0,0,.14.27.26.54.41.8.15.26.3.52.47.77,0-.01.32.45.33.49.66.85,1.46,1.62,2.3,2.3.28.22.23.18.67.49.26.18.53.35.8.52.46.28.93.54,1.4.78,1.1.56,1.91.86,3.24,1.24,2.3.65,4.26.88,6.81.61.36-.04.41-.05.14-.02.2-.03.4-.07.6-.11.3-.06.59-.13.88-.21.29-.08.57-.16.86-.26-.04.01.5-.19.55-.2,1-.43,2.11-1.13,2.78-1.7,2.58-2.18,4.31-5.13,5.71-8.23-.08-.05-.17-.09-.23-.16-1.88-2.02-4.11-3.66-6.27-5.37-.64-.51-.49-1.54,0-2.07.25-.27.68-.43,1.03-.43.42,0,.72.18,1.03.43,1.92,1.53,3.9,3.01,5.64,4.74.27-.68.53-1.36.79-2.03-2.16-2.12-4.17-4.37-6.54-6.27-.64-.51-.49-1.54,0-2.07.57-.62,1.47-.48,2.07,0,2.01,1.62,3.77,3.49,5.58,5.32.23-.65.45-1.31.67-1.97-2.42-2.3-4.85-4.23-7.68-6.03-.69-.44-.91-1.28-.52-2,.36-.68,1.35-.94,2-.52,2.52,1.6,4.9,3.42,7.13,5.42.86-3.27,1.43-6.6,1.41-9.98Zm-16.94-22.36c4.16.04,8.44.97,12.15,2.92,1.16-4.24,2.16-8.53,3.37-12.76-4.52.02-9.04-.79-13.35-2.53-.02,0-.04-.02-.06-.03-.76,4.2-1.95,8.3-3.1,12.41.33-.01.66-.02,1-.02Zm60.5-92.34c-.12-1.27-.17-1.66-.32-2.59-.16-.97-.35-1.93-.59-2.89-.25-1.01-.55-2.02-.92-2.99-.04-.1-.07-.19-.11-.29-.02-.03-.19-.43-.21-.47-.18-.39-.38-.77-.59-1.14-.25-.44-.53-.85-.8-1.27-.03-.05-.05-.08-.07-.11-.02-.03-.04-.04-.07-.08-.11-.12-.21-.25-.32-.37-.27-.3-.56-.57-.85-.86-.05-.04-.29-.24-.36-.29-.1-.07-.19-.14-.29-.2-.41-.27-.84-.5-1.28-.71,0,0,0,0-.01,0-.03,0-.05-.01-.1-.03-.25-.07-.49-.16-.74-.23-.15-.04-.86-.18-.95-.21-.36-.04-.72-.06-1.07-.06-.29,0-.57.02-.86.04-.02,0-.02,0-.04,0-.01,0-.02,0-.03,0-.4.09-.8.17-1.19.28-.13.04-.74.26-.85.29-.42.18-.83.39-1.22.61-.19.11-.37.23-.55.35,1.08,2.91,1.92,5.92,2.47,8.97,2.06,11.51.75,23.82-2.25,35.05-1.54,5.75-3.65,11.43-6.52,16.65-3.02,5.5-7.18,11.37-13.12,13.95-3.32,1.44-7.14,1.59-10.03-.83-.53.05-1.06.08-1.58.04-5-.33-8.75-3.97-11.06-8.17-2.56-4.63-3.42-9.64-3.75-14.87-.4-6.26.03-12.54,1.09-18.72,2.12-12.31,7.15-24.24,14.57-34.29,1.03-1.4,2.11-2.88,3.28-4.32-.99-1.73-2.32-3.31-3.75-4.2-.32-.2-.65-.38-.99-.55-.02,0-.06-.03-.1-.04-.4-.15-.8-.27-1.21-.36-.08-.02-.5-.07-.5-.07-.12,0-.24-.02-.36-.02-.41-.01-.83.01-1.24.06-.1.02-.28.05-.39.07-.25.06-.51.12-.76.19-.39.11-.78.25-1.16.4-.03.03-.77.37-.89.44-.42.22-.83.46-1.23.71-1.78,1.12-3.1,2.29-4.75,3.97-1.45,1.48-2.93,3.25-3.93,4.59-2.83,3.81-5.14,7.94-7.14,12.24-2.68,5.8-4.69,11.91-6.26,18.09-1.6,6.26-2.84,12.59-2.89,19.07-.08,11.08,2.89,22.56,10.22,30.84,6.74,7.62,16.47,11.87,26.76,10.89,10.21-.97,19.91-7.31,25.99-15.57,3.46-4.77,6.37-9.93,8.68-15.35,4.65-10.91,7.01-22.82,7.41-34.65.13-3.67.14-7.35-.2-11Z"/>
          <path class="cls-3" d="m316.77,410.29s-.02,0-.03.01c.16-.05.24-.08.25-.09-.07.03-.15.05-.22.08Z"/>
          <path class="cls-3" d="m305.76,448.08c.01.1.02.21.03.31,0,0,0,0,0,.02-.03-.31-.04-.37-.04-.33Z"/>
          <path class="cls-3" d="m307.84,447.51c-1.65.91-.17,3.44,1.48,2.52,5.55-3.08,12.75-1.24,16.67,3.75.49.62,1.56.51,2.07,0,.61-.61.49-1.45,0-2.07-4.69-5.95-13.56-7.9-20.22-4.21Z"/>
          <path class="cls-3" d="m398.26,357.09c-.69-.19-1.68.23-1.8,1.02-1.02,6.99-4.71,13.57-10.34,17.89-.63.48-.96,1.26-.52,2,.36.62,1.37,1.01,2,.52,6.23-4.77,10.55-11.84,11.69-19.64.11-.78-.19-1.57-1.02-1.8Z"/>
          <path class="cls-3" d="m405.79,364.39c-.83-.23-1.5.29-1.8,1.02-1.4,3.47-3.39,6.86-5.75,9.79-.49.61-.6,1.47,0,2.07.51.51,1.57.62,2.07,0,2.71-3.37,4.88-7.07,6.5-11.08.3-.73-.32-1.61-1.02-1.8Z"/>
          <path class="cls-3" d="m289.73,353.51c-.58,4.46-.08,9.05,1.42,13.29.26.74,1,1.24,1.8,1.02.72-.2,1.29-1.05,1.02-1.8-1.43-4.03-1.86-8.27-1.31-12.51.1-.78-.74-1.46-1.46-1.46-.87,0-1.36.68-1.46,1.46Z"/>
          <path class="cls-3" d="m288.03,369.66c.7-.23,1.31-1.03,1.02-1.8-1.09-2.91-1.46-5.72-1.17-8.81.07-.76-.72-1.5-1.46-1.46-.85.04-1.39.64-1.46,1.46-.3,3.23.14,6.55,1.28,9.59.27.71,1,1.28,1.8,1.02Z"/>
          <path class="cls-3" d="m243.99,424.44c3.96,7.28,4.39,15.61,2.94,23.63-1.48,8.16-4.84,15.86-8.38,23.3-3.74,7.86-7.72,15.6-11.92,23.22-4.2,7.62-8.63,15.12-13.28,22.48-2.29,3.62-4.59,7.24-7.03,10.76-2.24,3.23-4.77,6.36-8.24,8.33-1.74.99-3.56,1.62-5.42,1.99-1.37,4.44-3.04,8.95-5.67,12.76.04.03.07.05.11.09,3.89,3.71,6.66,8.57,7.95,13.78.58,2.32.87,4.73.85,7.12-.02,2.44-.3,5-1.24,7.26-.99,2.39-2.78,4.39-5.3,5.18-2.25.71-4.7.08-6.36-1.59-1.48-1.49-2.29-3.56-2.73-5.58-.55-2.51-.71-5.15-.74-7.71-.04-4.26.48-8.52,1.54-12.65-7.18,4.71-16.09,2.58-23.47-.58-8.02-3.43-15.76-7.71-23.21-12.24-6.53-3.97-14.06-8.16-18.16-14.86-2.05-3.35-3.03-7.5-2.64-11.41.39-3.88,1.93-7.37,3.61-10.83-1.62-1.81-2.86-3.92-3.62-6.32-1.97-6.23-.13-12.97,2.07-18.87,1.78-4.76,4.12-9.46,5.44-14.41-.48-.25-.91-.63-1.24-1.09-2.2-3.08-4.15-6.34-5.67-9.81-3.17-7.22-4.78-15.5-2.3-23.2,1.91-5.93,6.59-10.94,12.27-13.45,5.7-2.52,12.52-2.8,17.7,1.09,2.56,1.92,4.56,4.99,7.33,6.3.97.46,2.17.5,3.3.03,1.26-.53,2.47-1.61,3.34-2.76,2.22-2.92,2.81-6.78,3.86-10.21,1.14-3.75,2.83-7.21,5.57-10.05,4.93-5.12,12.09-7.66,19.07-8.1,8.6-.54,17.07,2.26,24.99,5.28,6.76,2.58,13.61,5.18,19.87,8.84,5.95,3.49,11.47,8.12,14.81,14.26Zm-56.28-22.55c3.68,4.51,7.24,9.11,10.67,13.81,1.24,1.71,2.45,3.45,3.66,5.18,7.77-2.18,15.57-4.23,23.42-6.13-2.83-1.6-5.81-2.98-8.77-4.24-6.83-2.91-13.96-5.8-21.22-7.51-2.54-.6-5.15-1-7.75-1.11Zm-24.18,103.72c8.92-3.05,17.92-5.88,27-8.42,2.39-.67,4.78-1.31,7.18-1.94-.59-.89-1.19-1.77-1.77-2.67-5.51-8.43-10.82-17-15.94-25.68-4.38,1.25-8.75,2.55-13.1,3.91-6.55,2.05-13.05,4.22-19.52,6.52,2.96,5.96,6.08,11.83,9.45,17.57,2.13,3.63,4.36,7.2,6.7,10.71Zm-1.17,3.49c-6.08,2.11-12.13,4.32-18.15,6.61,7.37,3.08,14.92,5.82,22.16,9.03,4.47,1.98,8.87,4.66,13.54,6.35-4.95-5.27-9.56-10.86-13.83-16.7-1.27-1.74-2.51-3.51-3.73-5.29Zm6.82-42.06c3.09-.95,6.19-1.85,9.3-2.74-.83-1.42-1.67-2.83-2.48-4.25-4.5-7.84-8.83-15.77-13.01-23.79,0,0,0,0,0,0-9.76,3.43-19.44,7.1-29.02,10.99.5,1.23.99,2.47,1.5,3.7,3.13,7.54,6.42,15.02,9.95,22.38.22.46.45.91.67,1.36,7.64-2.72,15.34-5.28,23.1-7.65Zm12.2-3.57c4.19-1.17,8.4-2.3,12.62-3.37,8.29-2.1,16.63-4.01,25.01-5.71.02,0,.04,0,.07-.01-4.4-8.31-9.18-16.42-14.32-24.29-1.28-1.96-2.6-3.9-3.93-5.83-11.78,3.35-23.47,7.03-35.05,11.04,1.5,2.88,3.02,5.75,4.56,8.6,3.56,6.59,7.25,13.1,11.03,19.57Zm-20.05-36.86c1.02,2.02,2.05,4.04,3.09,6.06,6.79-2.36,13.61-4.61,20.47-6.74,4.71-1.46,9.44-2.85,14.18-4.21-4.76-6.79-9.79-13.4-15.09-19.78-2.89.21-5.72.85-8.37,2.07-2.82,1.29-5.21,2.94-7.16,5.34-2.06,2.52-3.01,5.95-3.9,9.16-.8,2.85-1.7,5.62-3.21,8.1Zm-35.91-.95c.32.84.65,1.68.97,2.51,2.12,5.48,4.28,10.94,6.48,16.39,3.78-1.54,7.57-3.04,11.38-4.5,5.77-2.22,11.57-4.34,17.4-6.4-.76-1.48-1.51-2.96-2.26-4.45-2.26,2.47-5.59,4.37-9.01,4.13-3.69-.26-6.42-2.46-8.93-4.98-.95-.96-2.16-2.22-3.04-2.83-.58-.4-1.19-.76-1.83-1.05-.2-.09-.63-.25-1.23-.42-1.34-.37-1.85-.43-3.43-.36-.3.01-.6.04-.9.07-.07.02-.59.09-.68.11-.59.11-1.18.26-1.76.43-1.04.31-2.11.78-3.13,1.34Zm-4.56,58.76s.03-.01.05-.02c7.41-3.07,14.88-5.97,22.42-8.7-.6-1.24-1.2-2.48-1.79-3.73-3.54-7.53-6.83-15.17-9.98-22.86-.1-.25-.2-.49-.3-.74-2.72,1.12-5.44,2.25-8.14,3.4-.73.31-1.56.23-2-.52-.36-.62-.2-1.69.52-2,2.84-1.21,5.69-2.39,8.54-3.56-2.47-6.11-4.88-12.24-7.25-18.39-.26.21-.52.42-.76.63-.55.49-1.07,1.01-1.56,1.56-.21.23-.42.47-.62.72-.24.29-.12.13-.4.54-.42.6-.81,1.22-1.15,1.87-.15.28-.29.55-.42.84-.05.11-.1.22-.15.33,0,.02-.02.05-.04.12-1.21,3.16-1.5,6.55-1.2,9.91.6,6.64,3.75,12.91,7.49,18.36.43-.08.86-.08,1.25.03,1.64.45,2.29,2.04,2.04,3.6-.44,2.7-1.32,5.3-2.29,7.85-1.37,3.6-2.97,7.14-4.27,10.78Zm-1.81,14.02c.73,2.69,2.4,5,4.92,6.73,5.22,3.59,10.85,6.44,16.63,9,.18-.2.42-.36.68-.46,6.05-2.33,12.13-4.58,18.25-6.73.38-.13.76-.26,1.14-.39-2.75-4.16-5.37-8.41-7.85-12.73-2.91-5.08-5.63-10.27-8.23-15.52-.67.24-1.34.48-2.01.72-7.7,2.82-15.33,5.82-22.89,8.99-.28,1-.54,2.01-.73,3.03-.07.38-.14.76-.2,1.15-.02.14-.02.13-.06.52-.07.7-.11,1.39-.11,2.09,0,1.54.07,2.22.44,3.59Zm1.54,26.42c1.4-4.04,3.05-7.99,4.64-11.95-1.16-.68-2.29-1.4-3.4-2.15-1.35,2.84-2.53,5.78-2.46,8.92.04,1.86.48,3.58,1.22,5.17Zm2.65,1.93c.55-1.44,1.12-2.88,1.71-4.31,1.1-2.63,2.28-5.22,3.53-7.78-.77-.41-1.54-.83-2.31-1.27-1.55,4.29-3.05,8.61-4.85,12.8.42.68.89,1.34,1.42,1.96.16-.47.31-.95.49-1.41Zm12.99,8.52c.75-1.54,1.52-3.06,2.29-4.59,1.56-3.07,3.17-6.11,4.82-9.13-4.33-1.79-8.62-3.67-12.79-5.8-.1-.05-.19-.1-.29-.15-1.22,2.51-2.39,5.05-3.46,7.63-.6,1.43-1.17,2.86-1.72,4.3-.28.73-.57,1.45-.86,2.17,1.91,1.85,4.06,3.43,6.28,4.9,1.53,1.01,3.07,1.99,4.63,2.96.35-.78.72-1.54,1.1-2.3Zm2.84,4.68c2.76-5.6,5.64-11.13,8.47-16.69-.84-.34-1.67-.67-2.51-1.02-.01.02,0,.04-.02.07-1.65,3.04-3.25,6.11-4.81,9.2-.79,1.56-1.56,3.13-2.33,4.71-.36.73-.7,1.47-1.08,2.19-.02.05-.04.09-.07.13.78.47,1.56.94,2.34,1.41Zm11.58,3.4c.85-1.84,1.7-3.67,2.56-5.5,1.64-3.45,3.27-6.89,4.91-10.34-1.59-.66-3.19-1.31-4.79-1.94-1.56-.62-3.12-1.24-4.68-1.87-2.77,5.66-5.5,11.36-8.35,16.99.16.09.31.19.47.28,2.86,1.67,5.78,3.34,8.74,4.93.36-.85.75-1.69,1.14-2.55Zm2.33,3.96c.55-1.48,1.42-2.9,2.15-4.29.78-1.5,1.56-3,2.35-4.5,1.6-3.07,3.2-6.14,4.81-9.22,0,0,0,0,.01-.02-.96-.42-1.91-.84-2.88-1.24-1.58,3.46-3.15,6.93-4.73,10.39-.84,1.84-1.69,3.68-2.55,5.51-.42.9-.84,1.79-1.28,2.67.61.32,1.22.63,1.84.94.08-.1.17-.19.29-.25Zm15.76,4.34c1.01-1.75,1.96-3.53,2.85-5.35,1.69-3.44,3.22-6.92,4.48-10.54-.26-.11-.53-.21-.79-.33-3.69-1.58-7.19-3.57-10.85-5.23-.38-.17-.77-.33-1.15-.5,0,.03,0,.05-.02.07-1.55,3.1-3.1,6.19-4.66,9.29-.78,1.55-1.55,3.1-2.33,4.65-.69,1.38-1.32,2.9-2.19,4.19.02.11,0,.23-.02.33,2.52,1.24,5.07,2.39,7.66,3.39,1.93.74,3.92,1.39,5.95,1.76.35-.58.71-1.16,1.05-1.75Zm3.67,2.07c.3-.54.75-1.05,1.07-1.55.42-.67.83-1.34,1.21-2.03.8-1.44,1.51-2.94,2.13-4.47,1.14-2.81,1.92-5.76,2.36-8.77-.69-.22-1.37-.46-2.04-.72-1.15,3.64-2.46,7.27-4.1,10.71-.92,1.92-1.91,3.81-2.96,5.67-.21.37-.44.73-.65,1.09.99.1,1.98.13,2.99.07Zm14.02-15.3c-2.18-.19-4.35-.64-6.46-1.28-.44,3.01-1.21,5.97-2.35,8.81-.63,1.57-1.37,3.08-2.21,4.55-.43.75-.89,1.48-1.37,2.2-.18.27-.37.6-.58.91,2.57-.42,4.86-1.71,6.59-3.42,3.15-3.12,4.96-7.41,6.37-11.76Zm-1.25,14.78c-.06.07-.11.14-.17.2.02.18.01.37-.05.56-1.8,5.28-2.65,10.83-2.48,16.41.06,2.17.2,4.39.73,6.5.4,1.6,1,3.18,2.29,4.18.02.01.09.06.11.07.09.06.17.11.26.16.04.02.38.18.39.19.4.15.76.22,1.16.22.86,0,1.69-.33,2.43-.84,1.69-1.17,2.42-3.25,2.79-5.18,1.55-8.06-1.64-16.82-7.45-22.48Zm35.83-60.6c-5.28,1.17-10.56,2.38-15.8,3.69-.94.23-1.87.48-2.8.72,2.66,3.98,5.35,7.93,8.09,11.85.46.65.11,1.63-.52,2-.72.42-1.55.12-2-.52-2.9-4.15-5.75-8.34-8.56-12.55-8.55,2.24-17.04,4.69-25.46,7.39-2.92.94-5.83,1.9-8.73,2.89,1.62,2.36,3.27,4.7,4.99,6.98,4.62,6.14,9.67,11.96,15.1,17.41.36.05.71.1,1.08.14,3.24.31,6.43-.07,9.24-1.81,2.86-1.78,4.82-4.7,6.66-7.44,6.66-9.98,12.91-20.24,18.72-30.73Zm8.62-16.29c-2.26-5.23-4.67-10.4-7.22-15.5-.63-1.26-1.27-2.52-1.92-3.78-1.28.26-2.57.51-3.85.78-8.37,1.75-16.7,3.71-24.98,5.86-2.93.76-5.84,1.56-8.76,2.37,2.15,3.63,4.32,7.25,6.54,10.84,3.65,5.91,7.4,11.75,11.23,17.54,7.36-1.9,14.77-3.64,22.2-5.25,1.54-2.84,3.07-5.7,4.55-8.58.74-1.43,1.47-2.86,2.2-4.3Zm9.9-22.76c-5.37.88-10.73,1.84-16.07,2.89,2.78,5.42,5.41,10.93,7.87,16.51,2.29-4.59,4.47-9.25,6.31-14.02.68-1.76,1.32-3.56,1.89-5.38Zm2.24-16.62c-.56-6.63-3.79-12.4-8.62-16.77-1.54-1.4-3.23-2.64-4.99-3.78-.11.43-.43.79-1,.93-7.79,1.87-15.54,3.88-23.25,6.03-.04.01-.08.02-.12.04,4.94,7.24,9.58,14.68,13.89,22.32,1.51,2.67,2.97,5.35,4.39,8.06,6.09-1.2,12.21-2.3,18.34-3.28,1.14-4.42,1.75-8.96,1.36-13.54Z"/>
          <path class="cls-3" d="m159.39,325.09c-19.16-1.24-37.99-6.62-54.88-15.76-2.06-1.12-4.09-2.29-6.08-3.51-2.08-1.28-4.26-2.63-5.4-4.88-1.14-2.25-1.25-4.84-1.4-7.32-.14-2.44-.17-4.88-.09-7.32.31-9.22,2.16-18.37,5.46-26.99-1.35-.37-2.67-.82-3.95-1.33-7.91-3.17-14.91-8.61-19.29-15.99-4.62-7.8-5.48-17.03-3.46-25.77,1.01-4.36,2.72-8.58,4.81-12.53,2.05-3.88,4.49-7.71,7.55-10.87,5.46-5.65,12.81-8.8,20.6-9.39,7.79-.59,15.64,1.46,22.61,4.82,1.75.84,3.44,1.78,5.08,2.81,1.69,1.06,3.49,2.17,5.58,1.9,1.42-.18,3.04-1.53,4.3-2.62,1.67-1.46,3.35-2.91,5.23-4.09,7.32-4.59,16.64-5.81,24.97-3.64,8.3,2.16,15.27,7.91,19.09,15.58,3.05,6.12,4.24,13.19,3.07,19.92,5.45-.73,11.09-.14,16.25,1.69,11.97,4.26,21.35,14.94,20.95,28.1-.33,10.92-6.88,21.95-17.21,25.92,1.44,4.76,1.5,9.82.17,14.68-2.94,10.74-12.08,19.03-23.41,19.46-3.81.14-7.57-.57-11.05-1.97.36.74.4,1.65-.15,2.58-1.31,2.23-2.15,4.57-2.63,7.11-.44,2.33-1.5,4.49-3.16,6.21-1.54,1.6-3.64,2.78-5.83,3.2-2.52.48-5.2.17-7.73,0Zm-59.82-71.14c6.16,1.49,12.5,1.01,17.86-2.5.25-.96.93-1.76,2-2.06,1.45-.4,3.29.49,3.6,2.04.89,4.43,1.91,9.42,5.11,12.81,3.11,3.31,7.53,3.34,11.27,1.14,2.15-1.27,5.07.84,4.3,3.3-.09.3-.18.6-.24.9-.03.13-.05.26-.07.4-.02.59-.06,1.17-.03,1.76.01.23.04.46.06.69.01.05.07.48.1.63.14.69.32,1.37.54,2.04.11.33.23.64.34.97.05.13.07.2.08.23,0,.02.03.06.07.15.26.57.53,1.13.83,1.68.35.64.73,1.27,1.14,1.87.15.23.31.46.48.68.1.14.2.27.3.41.03.03.05.07.09.11,1.85,2.26,3.54,3.77,5.83,5.07,1.42.81,1.92,1.03,3.49,1.47.37.1.74.19,1.11.27.16.03.65.12.75.14.1,0,.6.06.77.07.34.02.68.03,1.03.03,1.64,0,2.31-.1,3.92-.57,1.58-.46,2.83-1.08,4.33-2.01,3.21-1.98,6.15,3.08,2.95,5.05-.41.25-.83.49-1.25.72,1.91,3.44,5.05,6.29,8.68,8.19,7.67,4,17.16,3.23,23.32-3.1,2.97-3.05,4.9-6.87,5.78-11.17.79-3.82.43-8.4-1.21-11.95-.75-1.63-.24-3.83,1.75-4.3,5.33-1.25,9.59-4.72,12.39-9.41,2.53-4.22,3.75-8.95,3.51-13.87-.07-1.52-.15-2.09-.5-3.56-.14-.61-.31-1.22-.5-1.81-.1-.3-.2-.6-.31-.89.01.03-.18-.45-.22-.56-1.07-2.48-2.53-4.64-4.22-6.47-7.2-7.75-18.81-10.71-28.81-7.82-2.04.59-4.35-1.47-3.6-3.6.56-1.59,1.08-3.64,1.26-5.04.87-7-1.18-14.43-5.62-19.82-4.76-5.78-11.73-8.85-19.11-8.86-3.6,0-7.24.67-10.52,2.11-1.71.75-3.35,1.69-4.86,2.8-1.55,1.14-3.02,2.63-4.6,3.84-1.79,1.37-3.75,2.37-6.02,2.61-2.38.25-4.85-.41-6.96-1.49-1.68-.86-3.22-2-4.88-2.9-1.49-.8-3.19-1.62-4.54-2.16-3.27-1.31-6.72-2.3-10.22-2.76-.11-.01-.36-.04-.43-.05-.22-.02-.43-.05-.65-.07-.38-.04-.76-.07-1.13-.09-.86-.05-1.72-.08-2.58-.07-1.67.01-3.36.16-4.62.38-6.64,1.17-12.36,4.56-16.4,10.08-4.6,6.3-8.35,14.07-9.21,21.76-.87,7.8,1.12,15.47,6.31,21.56,4.67,5.48,11.03,9.29,17.98,10.97Zm51.07,64.4c1.98-7.92,3.08-16.04,3.26-24.21.01-.45.19-.79.45-1.03-4.92-1.61-9.13-5.02-12.24-9.24-2.37-3.21-4.28-7.38-4.6-11.54-4.44.98-9.15.05-12.71-3.16-3.36-3.03-5.16-7.23-6.34-11.55-.7.37-1.42.71-2.16,1.02-4.25,1.77-8.91,2.25-13.49,1.78-3.5,8.98-5.42,18.52-5.47,28.17-.01,2.29.07,4.58.26,6.85.15,1.77.48,3.16,2,4.2,3.02,2.05,6.24,3.83,9.5,5.51-.01-1.87,0-3.74.05-5.61.26-9.76,1.34-19.5,3.19-29.08.15-.78,1.08-1.22,1.8-1.02.8.22,1.17,1.02,1.02,1.8-.52,2.69-.98,5.38-1.37,8.09-1.31,9.03-1.87,18.18-1.75,27.3,5.36,2.62,10.9,4.85,16.58,6.69.04-1.9.09-3.79.18-5.69.44-9.3,1.5-18.56,3.14-27.72.14-.78,1.09-1.22,1.8-1.02.81.22,1.16,1.02,1.02,1.8-.45,2.54-.86,5.09-1.23,7.64-1.22,8.57-1.87,17.23-2.01,25.89,1.32.39,2.64.77,3.97,1.12,4.99,1.31,10.04,2.32,15.14,3.01Zm2.92.36c2.59.29,5.19.51,7.8.64,1.15.06,2.31.13,3.46.12.77,0,1.04-.04,1.86-.32.97-.32,2.19-1.27,2.78-2.23.89-1.46,1.01-3.27,1.54-5.1.62-2.16,1.54-4.26,2.69-6.2.44-.75,1.05-1.16,1.71-1.32-4.41-2.52-8.12-6.22-10.5-10.76-1.82.44-3.69.65-5.57.53-.87-.06-1.72-.17-2.55-.33.03.12.05.25.04.39-.18,8.28-1.28,16.53-3.26,24.57Z"/>
          <path class="cls-3" d="m119.71,245.53c-.25-7.01,1.86-13.92,5.95-19.63.46-.64.11-1.63-.52-2-.74-.43-1.54-.12-2,.52-4.36,6.08-6.61,13.62-6.35,21.1.07,1.88,2.99,1.89,2.92,0Z"/>
          <path class="cls-3" d="m146.23,262.4c.73.39,1.55.16,2-.52,1.43-2.17,2.87-4.34,4.3-6.51.42-.64.15-1.65-.52-2-.73-.39-1.55-.16-2,.52-1.43,2.17-2.87,4.34-4.3,6.51-.42.64-.15,1.65.52,2Z"/>
          <path class="cls-3" d="m177.48,283.93c6.11-4.42,10.61-10.84,12.56-18.14.49-1.82-2.33-2.6-2.82-.78-1.74,6.53-5.73,12.43-11.22,16.39-.64.46-.95,1.27-.52,2,.37.63,1.36.99,2,.52Z"/>
          <path class="cls-3" d="m188.96,278.48c-.36-.08-.81-.08-1.13.15-.83.59-1.66,1.17-2.49,1.76-.17.09-.31.22-.41.38-.13.14-.22.31-.26.5-.1.35-.05.82.15,1.13.2.31.5.59.87.67.36.08.81.08,1.13-.15.83-.59,1.66-1.17,2.49-1.76.17-.09.31-.22.41-.38.13-.14.22-.31.26-.5.1-.35.05-.82-.15-1.13-.2-.31-.5-.59-.87-.67Z"/>
          <path class="cls-3" d="m98.9,199.51c-.44-.68-1.28-.92-2-.52-2.29,1.24-4.57,2.48-6.86,3.72-.67.37-.94,1.35-.52,2,.44.68,1.28.92,2,.52,2.29-1.24,4.57-2.48,6.86-3.72.67-.37.94-1.35.52-2Z"/>
          <path class="cls-3" d="m99.81,207.87c.04-.19.03-.39-.03-.58-.11-.35-.33-.7-.67-.87-.12-.05-.23-.1-.35-.15-.26-.07-.52-.07-.78,0-.62.11-1.24.23-1.86.34-.19.05-.36.13-.5.26-.16.1-.28.24-.38.41-.11.17-.16.35-.17.54-.04.19-.03.39.03.58.11.35.33.69.67.87.12.05.23.1.35.15.26.07.52.07.78,0,.62-.11,1.24-.23,1.86-.34.19-.05.36-.13.5-.26.16-.1.28-.24.38-.41.11-.17.16-.35.17-.54Z"/>
          <path class="cls-3" d="m195.67,251.4c.8-.04,1.45-.64,1.46-1.46.03-2.41.05-4.82.08-7.23,0-.77-.68-1.5-1.46-1.46-.8.04-1.45.64-1.46,1.46-.03,2.41-.05,4.82-.08,7.23,0,.77.68,1.5,1.46,1.46Z"/>
          <path class="cls-3" d="m201.43,251.93c.79.18,1.56-.24,1.8-1.02.96-3.12,1.12-6.4.54-9.6-.13-.75-1.1-1.25-1.8-1.02-.81.26-1.17.99-1.02,1.8.12.66.17,1.1.22,1.87.04.73.04,1.46,0,2.19-.08,1.34-.32,2.58-.76,3.99-.23.73.27,1.63,1.02,1.8Z"/>
          <path class="cls-3" d="m98.11,372.87c.19.14.29.36.29.59,0,.23-.11.45-.3.59-4.1,3.05-7.27,7.15-9.16,11.88-.11.28-.41.45-.68.46-.3,0-.57-.18-.68-.46-1.9-4.73-5.08-8.84-9.19-11.88-.19-.14-.3-.36-.3-.59,0-.23.11-.45.29-.59,4.11-3.05,7.29-7.17,9.19-11.89.11-.28.38-.46.68-.46h0c.3,0,.57.18.68.46,1.88,4.72,5.05,8.83,9.16,11.89Zm-1.64.58c-3.51-2.8-6.31-6.35-8.2-10.37-1.9,4.03-4.72,7.58-8.23,10.37,3.51,2.78,6.32,6.32,8.23,10.36,1.89-4.03,4.7-7.58,8.2-10.36Z"/>
          <path class="cls-3" d="m55.32,375.99c-1.94,1.44-3.44,3.38-4.33,5.61-.11.28-.38.46-.68.46h0c-.3,0-.57-.18-.68-.46-.9-2.24-2.4-4.18-4.34-5.61-.19-.14-.3-.36-.3-.59,0-.23.11-.45.29-.59,1.94-1.44,3.44-3.38,4.34-5.62.11-.28.4-.46.68-.46.3,0,.57.18.68.46.89,2.23,2.39,4.17,4.33,5.62.18.14.29.36.29.59,0,.23-.11.45-.29.59Zm-1.61-.59c-1.39-1.18-2.54-2.61-3.4-4.21-.86,1.6-2.01,3.03-3.41,4.21,1.39,1.18,2.55,2.6,3.41,4.2.86-1.6,2.01-3.02,3.4-4.2Z"/>
          <path class="cls-3" d="m76.27,390.22c0,2.14-1.74,3.88-3.88,3.88s-3.88-1.74-3.88-3.88,1.74-3.88,3.88-3.88,3.88,1.74,3.88,3.88Zm-1.46,0c0-1.33-1.08-2.42-2.42-2.42s-2.42,1.08-2.42,2.42,1.08,2.42,2.42,2.42,2.42-1.08,2.42-2.42Z"/>
          <path class="cls-3" d="m281.25,219.5c.79-.04,1.46-.64,1.46-1.46v-4.6c0-.76-.67-1.5-1.46-1.46-.79.04-1.46.64-1.46,1.46v4.6c0,.76.67,1.5,1.46,1.46Z"/>
          <path class="cls-3" d="m282.72,226.43c0-.76-.67-1.5-1.46-1.46-.79.04-1.46.64-1.46,1.46v4.6c0,.76.67,1.5,1.46,1.46.79-.04,1.46-.64,1.46-1.46v-4.6Z"/>
          <path class="cls-3" d="m285.45,223.7h4.6c.76,0,1.5-.67,1.46-1.46-.04-.79-.64-1.46-1.46-1.46h-4.6c-.76,0-1.5.67-1.46,1.46.04.79.64,1.46,1.46,1.46Z"/>
          <path class="cls-3" d="m278.52,222.23c-.04-.79-.64-1.46-1.46-1.46h-4.6c-.76,0-1.5.67-1.46,1.46.04.79.64,1.46,1.46,1.46h4.6c.76,0,1.5-.67,1.46-1.46Z"/>
          <path class="cls-3" d="m283.84,506.88c-.79.04-1.46.64-1.46,1.46v4.6c0,.76.67,1.5,1.46,1.46.79-.04,1.46-.64,1.46-1.46v-4.6c0-.76-.67-1.5-1.46-1.46Z"/>
          <path class="cls-3" d="m283.84,519.87c-.79.04-1.46.64-1.46,1.46v4.6c0,.76.67,1.5,1.46,1.46.79-.04,1.46-.64,1.46-1.46v-4.6c0-.76-.67-1.5-1.46-1.46Z"/>
          <path class="cls-3" d="m292.63,515.67h-4.6c-.76,0-1.5.67-1.46,1.46.04.79.64,1.46,1.46,1.46h4.6c.76,0,1.5-.67,1.46-1.46-.04-.79-.64-1.46-1.46-1.46Z"/>
          <path class="cls-3" d="m279.64,515.67h-4.6c-.76,0-1.5.67-1.46,1.46.04.79.64,1.46,1.46,1.46h4.6c.76,0,1.5-.67,1.46-1.46-.04-.79-.64-1.46-1.46-1.46Z"/>
          <path class="cls-3" d="m56.59,493c-.79.04-1.46.64-1.46,1.46v4.6c0,.76.67,1.5,1.46,1.46.79-.04,1.46-.64,1.46-1.46v-4.6c0-.76-.67-1.5-1.46-1.46Z"/>
          <path class="cls-3" d="m56.59,505.99c-.79.04-1.46.64-1.46,1.46v4.6c0,.76.67,1.5,1.46,1.46.79-.04,1.46-.64,1.46-1.46v-4.6c0-.76-.67-1.5-1.46-1.46Z"/>
          <path class="cls-3" d="m65.39,501.79h-4.6c-.76,0-1.5.67-1.46,1.46.04.79.64,1.46,1.46,1.46h4.6c.76,0,1.5-.67,1.46-1.46-.04-.79-.64-1.46-1.46-1.46Z"/>
          <path class="cls-3" d="m52.4,501.79h-4.6c-.76,0-1.5.67-1.46,1.46.04.79.64,1.46,1.46,1.46h4.6c.76,0,1.5-.67,1.46-1.46-.04-.79-.64-1.46-1.46-1.46Z"/>
          <path class="cls-3" d="m47.47,314.17c0-2.86,2.33-5.19,5.19-5.19s5.18,2.33,5.18,5.19-2.33,5.19-5.18,5.19-5.19-2.33-5.19-5.19Zm2.92,0c0,1.25,1.01,2.26,2.26,2.26s2.26-1.01,2.26-2.26-1.01-2.26-2.26-2.26-2.26,1.01-2.26,2.26Z"/>
          <path class="cls-3" d="m230.8,345.4c0,2.86-2.33,5.18-5.18,5.18s-5.19-2.33-5.19-5.18,2.33-5.19,5.19-5.19,5.18,2.33,5.18,5.19Zm-2.92,0c0-1.25-1.01-2.26-2.26-2.26s-2.26,1.01-2.26,2.26,1.01,2.26,2.26,2.26,2.26-1.01,2.26-2.26Z"/>
        </g>
        <g>
          <path class="cls-3" d="m469.93,41.34c3.96,7.28,4.39,15.61,2.94,23.63-1.48,8.15-4.84,15.86-8.38,23.3-3.74,7.86-7.72,15.6-11.92,23.22-4.2,7.62-8.63,15.12-13.28,22.48-2.29,3.62-4.59,7.24-7.03,10.76-2.24,3.22-4.77,6.36-8.24,8.33-1.74.99-3.56,1.62-5.42,1.99-1.37,4.44-3.04,8.95-5.67,12.76.04.03.07.05.11.09,3.89,3.71,6.66,8.57,7.95,13.78.58,2.32.87,4.73.85,7.12-.02,2.44-.3,5-1.24,7.26-.99,2.39-2.78,4.39-5.3,5.18-2.25.71-4.7.08-6.36-1.59-1.48-1.49-2.29-3.56-2.73-5.58-.55-2.51-.71-5.15-.74-7.71-.04-4.26.48-8.52,1.54-12.65-7.18,4.71-16.09,2.58-23.47-.58-8.02-3.43-15.76-7.71-23.21-12.24-6.53-3.97-14.06-8.16-18.16-14.86-2.05-3.35-3.03-7.5-2.64-11.41.39-3.88,1.93-7.37,3.61-10.83-1.62-1.81-2.86-3.92-3.62-6.32-1.97-6.23-.13-12.97,2.07-18.87,1.78-4.76,4.12-9.46,5.44-14.41-.48-.25-.91-.63-1.24-1.09-2.2-3.08-4.15-6.34-5.67-9.81-3.17-7.22-4.78-15.5-2.3-23.2,1.91-5.93,6.59-10.94,12.27-13.45,5.7-2.52,12.52-2.8,17.7,1.09,2.56,1.92,4.56,4.99,7.33,6.3.97.46,2.17.5,3.3.03,1.26-.53,2.47-1.61,3.34-2.76,2.22-2.92,2.81-6.78,3.86-10.21,1.14-3.75,2.83-7.21,5.57-10.05,4.93-5.12,12.09-7.66,19.07-8.1,8.6-.54,17.07,2.26,24.99,5.28,6.76,2.58,13.61,5.18,19.87,8.84,5.95,3.49,11.47,8.12,14.81,14.26Zm-56.28-22.55c3.68,4.51,7.24,9.11,10.67,13.81,1.24,1.71,2.45,3.45,3.66,5.18,7.77-2.18,15.57-4.23,23.42-6.13-2.83-1.6-5.81-2.98-8.77-4.24-6.83-2.91-13.96-5.8-21.22-7.51-2.54-.6-5.15-1-7.75-1.11Zm-24.18,103.72c8.92-3.05,17.92-5.88,27-8.42,2.39-.67,4.78-1.31,7.18-1.94-.59-.89-1.19-1.77-1.77-2.67-5.51-8.43-10.82-17-15.94-25.68-4.38,1.25-8.75,2.55-13.1,3.91-6.55,2.05-13.05,4.22-19.52,6.52,2.96,5.96,6.08,11.83,9.45,17.57,2.13,3.63,4.36,7.2,6.7,10.71Zm-1.17,3.49c-6.08,2.11-12.13,4.32-18.15,6.61,7.37,3.08,14.92,5.82,22.16,9.03,4.47,1.98,8.87,4.66,13.54,6.35-4.95-5.27-9.56-10.86-13.83-16.7-1.27-1.74-2.51-3.51-3.73-5.29Zm6.82-42.06c3.09-.95,6.19-1.85,9.3-2.74-.83-1.42-1.67-2.83-2.48-4.25-4.5-7.84-8.83-15.77-13.01-23.79,0,0,0,0,0,0-9.76,3.43-19.44,7.1-29.02,10.99.5,1.23.99,2.47,1.5,3.7,3.13,7.54,6.42,15.02,9.95,22.38.22.46.45.91.67,1.36,7.64-2.72,15.34-5.28,23.1-7.65Zm12.2-3.57c4.19-1.17,8.4-2.3,12.62-3.37,8.29-2.1,16.63-4.01,25.01-5.71.02,0,.04,0,.07-.01-4.4-8.31-9.18-16.42-14.32-24.29-1.28-1.96-2.6-3.9-3.93-5.83-11.78,3.35-23.47,7.03-35.05,11.04,1.5,2.88,3.02,5.75,4.56,8.6,3.56,6.59,7.25,13.1,11.03,19.57Zm-20.05-36.86c1.02,2.02,2.05,4.04,3.09,6.06,6.79-2.36,13.61-4.61,20.47-6.74,4.71-1.46,9.44-2.85,14.18-4.21-4.76-6.79-9.79-13.4-15.09-19.78-2.89.21-5.72.85-8.37,2.07-2.82,1.29-5.21,2.94-7.16,5.34-2.06,2.52-3.01,5.95-3.9,9.16-.8,2.85-1.7,5.62-3.21,8.1Zm-35.91-.95c.32.84.65,1.68.97,2.51,2.12,5.48,4.28,10.94,6.48,16.39,3.78-1.54,7.57-3.04,11.38-4.5,5.77-2.22,11.57-4.34,17.4-6.4-.76-1.48-1.51-2.96-2.26-4.45-2.26,2.47-5.59,4.37-9.01,4.13-3.69-.26-6.42-2.46-8.93-4.98-.95-.96-2.16-2.22-3.04-2.83-.58-.4-1.19-.76-1.83-1.05-.2-.09-.63-.25-1.23-.42-1.34-.37-1.85-.43-3.43-.36-.3.01-.6.04-.9.07-.07.02-.59.09-.68.11-.59.11-1.18.26-1.76.44-1.04.31-2.11.78-3.13,1.34Zm-4.56,58.76s.03-.01.05-.02c7.41-3.07,14.88-5.97,22.42-8.7-.6-1.24-1.2-2.48-1.79-3.73-3.54-7.53-6.83-15.17-9.98-22.86-.1-.25-.2-.49-.3-.74-2.72,1.12-5.44,2.25-8.14,3.4-.73.31-1.56.23-2-.52-.36-.62-.2-1.69.52-2,2.84-1.21,5.69-2.39,8.54-3.56-2.47-6.11-4.88-12.24-7.25-18.39-.26.21-.52.42-.76.63-.55.49-1.07,1.01-1.56,1.56-.21.23-.42.47-.62.72-.24.29-.12.13-.4.54-.42.6-.81,1.22-1.15,1.87-.15.28-.29.55-.42.84-.05.11-.1.22-.15.33,0,.02-.02.05-.04.12-1.21,3.16-1.5,6.55-1.2,9.91.6,6.64,3.75,12.91,7.49,18.36.43-.08.86-.08,1.25.03,1.64.45,2.29,2.04,2.04,3.6-.44,2.7-1.32,5.3-2.29,7.85-1.37,3.6-2.97,7.14-4.27,10.78Zm-1.81,14.02c.73,2.69,2.4,5,4.92,6.73,5.22,3.59,10.85,6.44,16.63,9,.18-.2.42-.36.68-.46,6.05-2.33,12.13-4.58,18.25-6.73.38-.13.76-.26,1.14-.39-2.75-4.16-5.37-8.41-7.85-12.73-2.91-5.08-5.63-10.27-8.23-15.52-.67.24-1.34.48-2.01.72-7.7,2.82-15.33,5.82-22.89,8.99-.28,1-.54,2.01-.73,3.03-.07.38-.14.76-.2,1.15-.02.14-.02.13-.06.52-.07.7-.11,1.39-.11,2.09,0,1.54.07,2.22.44,3.59Zm1.54,26.42c1.4-4.04,3.05-7.99,4.64-11.95-1.16-.68-2.29-1.4-3.4-2.15-1.35,2.84-2.53,5.78-2.46,8.92.04,1.86.48,3.58,1.22,5.17Zm2.65,1.93c.55-1.44,1.12-2.88,1.71-4.31,1.1-2.63,2.28-5.22,3.53-7.78-.77-.41-1.54-.83-2.31-1.27-1.55,4.29-3.05,8.61-4.85,12.8.42.68.89,1.34,1.42,1.96.16-.47.31-.94.49-1.41Zm12.99,8.52c.75-1.53,1.52-3.06,2.29-4.59,1.56-3.07,3.17-6.11,4.82-9.13-4.33-1.79-8.62-3.67-12.79-5.8-.1-.05-.19-.1-.29-.15-1.22,2.51-2.39,5.05-3.46,7.63-.6,1.43-1.17,2.86-1.72,4.3-.28.73-.57,1.45-.86,2.17,1.91,1.85,4.06,3.43,6.28,4.9,1.53,1.01,3.07,1.99,4.63,2.96.35-.78.72-1.54,1.1-2.3Zm2.84,4.68c2.76-5.6,5.64-11.13,8.47-16.69-.84-.34-1.67-.67-2.51-1.02-.01.02,0,.04-.02.07-1.65,3.04-3.25,6.11-4.81,9.2-.79,1.56-1.56,3.13-2.33,4.71-.36.73-.7,1.47-1.08,2.19-.02.04-.04.09-.07.13.78.47,1.56.94,2.34,1.41Zm11.58,3.4c.85-1.84,1.7-3.67,2.56-5.5,1.64-3.45,3.27-6.89,4.91-10.34-1.59-.66-3.19-1.31-4.79-1.94-1.56-.62-3.12-1.24-4.68-1.87-2.77,5.66-5.5,11.36-8.35,16.99.16.09.31.19.47.28,2.86,1.67,5.78,3.34,8.74,4.93.36-.85.75-1.69,1.14-2.55Zm2.33,3.96c.55-1.48,1.42-2.9,2.15-4.29.78-1.5,1.56-3,2.35-4.5,1.6-3.07,3.2-6.14,4.81-9.22,0,0,0,0,.01-.02-.96-.42-1.91-.84-2.88-1.24-1.58,3.46-3.15,6.93-4.73,10.39-.84,1.84-1.69,3.68-2.55,5.51-.42.9-.84,1.79-1.28,2.67.61.32,1.22.63,1.84.94.08-.1.17-.19.29-.25Zm15.76,4.34c1.01-1.75,1.96-3.53,2.85-5.35,1.69-3.44,3.22-6.92,4.48-10.54-.26-.11-.53-.21-.79-.33-3.69-1.58-7.19-3.57-10.85-5.23-.38-.17-.77-.33-1.15-.5,0,.03,0,.05-.02.07-1.55,3.1-3.1,6.19-4.66,9.29-.78,1.55-1.55,3.1-2.33,4.65-.69,1.38-1.32,2.9-2.19,4.19.02.11,0,.23-.02.33,2.52,1.24,5.07,2.39,7.66,3.39,1.93.74,3.92,1.38,5.95,1.76.35-.58.71-1.16,1.05-1.75Zm3.67,2.07c.3-.54.75-1.05,1.07-1.55.42-.67.83-1.34,1.21-2.03.8-1.44,1.51-2.94,2.13-4.47,1.14-2.81,1.92-5.76,2.36-8.77-.69-.22-1.37-.46-2.04-.72-1.15,3.64-2.46,7.27-4.1,10.71-.92,1.92-1.91,3.81-2.96,5.66-.21.37-.44.73-.65,1.09.99.1,1.98.13,2.99.07Zm14.02-15.3c-2.18-.19-4.35-.64-6.46-1.28-.44,3.01-1.21,5.97-2.35,8.81-.63,1.57-1.37,3.08-2.21,4.55-.43.75-.89,1.48-1.37,2.2-.18.27-.37.6-.58.91,2.57-.42,4.86-1.71,6.59-3.42,3.15-3.12,4.96-7.41,6.37-11.76Zm-1.25,14.78c-.06.07-.11.14-.17.2.02.18.01.37-.05.56-1.8,5.28-2.65,10.83-2.48,16.41.06,2.17.2,4.39.73,6.5.4,1.6,1,3.18,2.29,4.18.02.01.09.06.11.07.09.06.17.11.26.16.04.02.38.18.39.19.4.15.76.22,1.16.22.86,0,1.69-.33,2.43-.84,1.69-1.17,2.42-3.25,2.79-5.18,1.55-8.06-1.64-16.82-7.45-22.48Zm35.83-60.6c-5.28,1.17-10.56,2.38-15.8,3.69-.94.23-1.87.48-2.8.72,2.66,3.98,5.35,7.93,8.09,11.85.46.65.11,1.63-.52,2-.72.42-1.55.12-2-.52-2.9-4.15-5.75-8.34-8.56-12.55-8.55,2.24-17.04,4.69-25.46,7.39-2.92.94-5.83,1.9-8.73,2.89,1.62,2.36,3.27,4.7,4.99,6.98,4.62,6.14,9.67,11.96,15.1,17.41.36.05.71.1,1.08.14,3.24.31,6.43-.07,9.24-1.81,2.86-1.78,4.82-4.7,6.66-7.44,6.66-9.98,12.91-20.24,18.72-30.73Zm8.62-16.29c-2.26-5.23-4.67-10.4-7.22-15.5-.63-1.26-1.27-2.52-1.92-3.78-1.28.26-2.57.51-3.85.78-8.37,1.75-16.7,3.71-24.98,5.86-2.93.76-5.84,1.56-8.76,2.37,2.15,3.63,4.32,7.25,6.54,10.84,3.65,5.91,7.4,11.75,11.23,17.54,7.36-1.9,14.77-3.64,22.2-5.25,1.54-2.85,3.07-5.7,4.55-8.58.74-1.43,1.47-2.86,2.2-4.3Zm9.9-22.76c-5.37.88-10.73,1.84-16.07,2.89,2.78,5.42,5.41,10.93,7.87,16.51,2.29-4.59,4.47-9.25,6.31-14.02.68-1.76,1.32-3.56,1.89-5.38Zm2.24-16.62c-.56-6.63-3.79-12.4-8.62-16.77-1.54-1.4-3.23-2.64-4.99-3.78-.11.43-.43.79-1,.93-7.79,1.87-15.54,3.88-23.25,6.03-.04.01-.08.02-.12.04,4.94,7.24,9.58,14.68,13.89,22.32,1.51,2.67,2.97,5.35,4.39,8.06,6.09-1.2,12.21-2.3,18.34-3.28,1.14-4.42,1.75-8.96,1.36-13.54Z"/>
          <path class="cls-3" d="m324.05-10.23c.19.14.29.36.29.59,0,.23-.11.45-.3.59-4.1,3.05-7.27,7.15-9.16,11.88-.11.28-.41.45-.68.46-.3,0-.57-.18-.68-.46-1.9-4.73-5.08-8.84-9.19-11.88-.19-.14-.3-.36-.3-.59,0-.23.11-.45.29-.59,4.11-3.05,7.29-7.17,9.19-11.89.11-.28.38-.46.68-.46h0c.3,0,.57.18.68.46,1.88,4.72,5.05,8.83,9.16,11.89Zm-1.64.58c-3.51-2.8-6.31-6.35-8.2-10.37-1.9,4.03-4.72,7.58-8.23,10.37,3.51,2.78,6.32,6.32,8.23,10.36,1.89-4.03,4.7-7.58,8.2-10.36Z"/>
          <path class="cls-3" d="m302.21,7.11c0,2.14-1.74,3.88-3.88,3.88s-3.88-1.74-3.88-3.88,1.74-3.88,3.88-3.88,3.88,1.74,3.88,3.88Zm-1.46,0c0-1.33-1.08-2.42-2.42-2.42s-2.42,1.08-2.42,2.42,1.08,2.42,2.42,2.42,2.42-1.08,2.42-2.42Z"/>
          <path class="cls-3" d="m282.54,109.89c-.79.04-1.46.64-1.46,1.46v4.6c0,.76.67,1.5,1.46,1.46.79-.04,1.46-.64,1.46-1.46v-4.6c0-.76-.67-1.5-1.46-1.46Z"/>
          <path class="cls-3" d="m282.54,122.88c-.79.04-1.46.64-1.46,1.46v4.6c0,.76.67,1.5,1.46,1.46.79-.04,1.46-.64,1.46-1.46v-4.6c0-.76-.67-1.5-1.46-1.46Z"/>
          <path class="cls-3" d="m291.33,118.69h-4.6c-.76,0-1.5.67-1.46,1.46.04.79.64,1.46,1.46,1.46h4.6c.76,0,1.5-.67,1.46-1.46-.04-.79-.64-1.46-1.46-1.46Z"/>
          <path class="cls-3" d="m278.34,118.69h-4.6c-.76,0-1.5.67-1.46,1.46.04.79.64,1.46,1.46,1.46h4.6c.76,0,1.5-.67,1.46-1.46-.04-.79-.64-1.46-1.46-1.46Z"/>
        </g>
        <g>
          <path class="cls-3" d="m162.4-45.18c-2.38,13.09-7.3,25.91-15.13,36.72-3.54,4.82-7.83,8.97-12.89,12.18-4.61,2.93-9.76,4.93-15.06,5.83-.02.14-.03.28-.07.41-1.67,5.48-2.85,11.1-4.45,16.6,4.78,4.95,6.07,12.37,5.45,19.01-.63,6.81-2.83,13.31-5.44,19.6-2.41,5.8-5.61,12.01-11.52,14.91-5.47,2.68-12.01,2.26-17.53-.05-4.93-2.07-9.6-5.87-11.13-11.19-1.06-3.7-.98-7.8-.72-11.6.33-4.95,1.11-9.9,2.32-14.71,1.15-4.59,2.7-9.21,5.05-13.34,1.91-3.34,4.58-6.61,8.39-7.77.17-.05.34-.08.5-.1,1.47-5.49,3.21-10.91,4.1-16.53-8.03-4.89-13.96-12.57-17.36-21.47-5.18-13.56-3.87-28.19-.31-41.96,3.05-11.78,7.68-23.46,15.25-33.09,5.43-6.9,15.28-15.58,24.39-9.53,1.92,1.27,3.45,2.89,4.68,4.71,1.52-1.32,3.17-2.44,5.01-3.16,3.83-1.51,7.75-.36,10.75,2.28,1.98,1.75,3.46,3.99,4.68,6.36,1.51-.86,3.13-1.5,4.85-1.78,4.6-.76,9.34.86,12.36,4.46,2.85,3.4,4.22,7.78,4.9,12.1,1.6,10.2.76,21-1.08,31.1Zm-38.74-45.77c.61,1.79,1.07,3.65,1.39,5.5.72,4.08,1.16,8.21,1.41,12.35.11-.2.21-.4.32-.6,2.39-4.34,5.08-8.59,8.42-12.26.46-.5.94-.99,1.43-1.47-.16-.33-.31-.66-.48-.99-.42-.79-.88-1.56-1.38-2.31-.18-.27-.38-.54-.57-.8.01.04-.54-.65-.66-.77-.29-.32-.6-.62-.92-.91-.1-.09-.22-.18-.32-.27-.01-.01-.01-.02-.03-.03-.01,0-.02,0-.03-.02-.28-.17-.55-.37-.84-.53-.13-.07-.26-.13-.39-.2-.34-.09-.7-.19-1.04-.29,0,0,0,0-.01,0-.12,0-.26-.01-.39-.01-.18,0-.35.02-.53.02-.38.09-.76.22-1.13.31-.04,0-.06.01-.08.02-.02.01-.04.02-.07.04-.22.12-.44.22-.66.34-.39.22-.76.46-1.12.71-.05.04-.1.07-.13.09-.23.18-.45.37-.66.56-.41.37-.81.75-1.19,1.15-.12.12-.23.24-.34.36Zm-1.12,74.35c4.45-2.19,7.55-7.17,9.83-11.32,5.26-9.57,7.93-20.76,8.69-31.61.54-7.6.1-14.76-2.09-21.9-2.41,2.72-4.31,5.72-6.24,9.08-1.93,3.36-3.63,6.83-5.35,10.3-.22.45-.45.9-.67,1.36-.08,6.85-.45,13.71-1.09,20.52-.35,3.76-.83,7.51-1.07,11.27-.16,2.53,0,5.06-.37,7.58-.24,1.66-.76,3.3-1.65,4.71Zm-3.96-68.3c-3.41,4.61-6.3,9.61-8.62,14.86-4.53,10.26-6.71,21.6-6.36,32.8.05,1.47.13,2.93.27,4.39.06.66.13,1.33.21,1.99.01.1.02.18.03.24,0,.03.01.07.02.12.03.17.06.34.09.51.19,1.03.45,2.06.76,3.06.16.5.33,1.01.52,1.5.05.13.1.26.15.39.02.03.23.53.23.54.45.97.95,1.92,1.54,2.82.62.95.63,1,1.45,1.85.33.34.67.67,1.04.97.08.05.38.27.41.29.22.14.44.27.66.39-.15-.76-.27-1.53-.37-2.29-.91-7.16.09-14.46,2.07-21.36,2.02-7.05,5.05-13.79,8.27-20.37.02-.04.04-.07.05-.11.04-6.99-.34-13.97-1.45-20.8-.13-.82-.28-1.64-.45-2.47-.17.23-.35.45-.52.68Zm-2.46,58.55c-.02,2.39-.03,5.11.64,7.5.15-.1.29-.21.4-.32.1-.1.2-.2.29-.31.03-.04.05-.08.09-.14.13-.21.25-.42.36-.64.03-.05.04-.08.06-.1.02-.05.03-.08.05-.15.1-.28.18-.57.26-.86.28-1.1.27-1.37.33-2.62.11-2.48.1-4.93.32-7.4.32-3.5.71-7,1.01-10.51.13-1.46.24-2.93.36-4.4-2.41,6.41-4.1,13.04-4.17,19.93Zm-1.56,68.63c-.02-2.95-.49-6-1.83-8.65-1.06-2.11-2.54-3.71-4.42-4.92-2.18-1.4-4.27-2.12-6.92-2.61-1.08-.2-2.09-.3-3.44-.33-.64-.01-1.28,0-1.91.03-.31.02-.63.04-.94.07,0,0-1.01.11-.45.04-.43.06-.86.05-1.26-.01-.2.05-.41.07-.62.08-.33.47-.83.86-1.53,1.07-.06.02-.12.04-.18.06.03-.01-.1.03-.22.08-.07.03-.14.05-.22.08.08-.02.13-.04.18-.06-.03.01-.06.03-.08.04-.35.2-.68.42-1.02.63,0,0,0,0,0,0-.01.01-.02.02-.03.03-.11.11-.23.2-.35.31-.33.3-.65.63-.94.96-.17.2-.34.4-.51.6,0,0,0,0,0,0-.27.39-.55.77-.8,1.17-.55.86-1.04,1.74-1.5,2.65-.26.52-.51,1.05-.75,1.58-.07.15-.14.31-.2.47,0,0,0,.01,0,.02-.1.24-.2.49-.29.73-.43,1.09-.82,2.2-1.18,3.32-.75,2.34-1.37,4.73-1.88,7.13-.24,1.12-.45,2.24-.64,3.37-.09.56-.18,1.12-.27,1.68-.03.21-.06.42-.09.63-.01.09-.06.49-.07.53-.25,2.01-.42,4.03-.49,6.06-.06,1.82-.05,3.65.12,5.46.01.13.03.25.04.38,0,.05.02.2.03.31,0,.03,0,.07.01.1,0-.04,0-.06,0-.09,0,.02,0,.05,0,.06.05.29.1.59.16.88.12.6.31,1.16.48,1.74,0,.01,0,.01,0,.02,0,0,0,0,0,0,.14.27.26.54.41.8.15.26.3.52.47.77,0-.01.32.45.33.49.66.85,1.46,1.62,2.3,2.3.28.22.23.18.67.49.26.18.53.35.8.52.46.28.93.54,1.4.78,1.1.56,1.91.86,3.24,1.24,2.3.65,4.26.88,6.81.61.36-.04.41-.05.14-.02.2-.03.4-.07.6-.11.3-.06.59-.13.88-.21.29-.08.57-.16.86-.26-.04.01.5-.19.55-.2,1-.43,2.11-1.13,2.78-1.7,2.58-2.18,4.31-5.13,5.71-8.23-.08-.05-.17-.09-.23-.16-1.88-2.02-4.11-3.66-6.27-5.37-.64-.51-.49-1.54,0-2.07.25-.27.68-.43,1.03-.43.42,0,.72.18,1.03.43,1.92,1.53,3.9,3.01,5.64,4.74.27-.68.53-1.36.79-2.03-2.16-2.12-4.17-4.37-6.54-6.27-.64-.51-.49-1.54,0-2.07.57-.62,1.47-.48,2.07,0,2.01,1.62,3.77,3.49,5.58,5.32.23-.65.45-1.31.67-1.97-2.42-2.3-4.85-4.23-7.68-6.03-.69-.44-.91-1.28-.52-2,.36-.68,1.35-.94,2-.52,2.52,1.6,4.9,3.42,7.13,5.42.86-3.27,1.43-6.6,1.41-9.98Zm-16.94-22.36c4.16.04,8.44.97,12.15,2.92,1.16-4.24,2.16-8.53,3.37-12.76-4.52.02-9.04-.79-13.35-2.53-.02,0-.04-.02-.06-.03-.76,4.2-1.95,8.3-3.1,12.41.33-.01.66-.02,1-.02Zm60.5-92.34c-.12-1.27-.17-1.66-.32-2.59-.16-.97-.35-1.93-.59-2.89-.25-1.01-.55-2.02-.92-2.99-.04-.1-.07-.19-.11-.29-.02-.03-.19-.43-.21-.47-.18-.39-.38-.77-.59-1.14-.25-.44-.53-.85-.8-1.27-.03-.05-.05-.08-.07-.11-.02-.02-.04-.04-.07-.08-.11-.12-.21-.25-.32-.37-.27-.3-.56-.57-.85-.86-.05-.04-.29-.24-.36-.29-.1-.07-.19-.14-.29-.2-.41-.27-.84-.5-1.28-.71,0,0,0,0-.01,0-.03,0-.05-.01-.1-.03-.25-.07-.49-.16-.74-.23-.15-.04-.86-.18-.95-.21-.36-.04-.72-.06-1.07-.06-.29,0-.57.02-.86.04-.02,0-.02,0-.04,0-.01,0-.02,0-.03,0-.4.09-.8.17-1.19.28-.13.04-.74.26-.85.29-.42.18-.83.39-1.22.61-.19.11-.37.23-.55.35,1.08,2.91,1.92,5.92,2.47,8.97,2.06,11.51.75,23.82-2.25,35.05-1.54,5.75-3.65,11.43-6.52,16.65-3.02,5.5-7.18,11.37-13.12,13.95-3.32,1.44-7.14,1.59-10.03-.83-.53.05-1.06.08-1.58.04-5-.33-8.75-3.97-11.06-8.17-2.56-4.63-3.42-9.64-3.75-14.87-.4-6.26.03-12.54,1.09-18.72,2.12-12.31,7.15-24.24,14.57-34.29,1.03-1.4,2.11-2.88,3.28-4.32-.99-1.73-2.32-3.31-3.75-4.2-.32-.2-.65-.38-.99-.55-.02,0-.06-.03-.1-.04-.4-.15-.8-.27-1.21-.36-.08-.02-.5-.07-.5-.07-.12,0-.24-.02-.36-.02-.41-.01-.83.01-1.24.06-.1.02-.28.05-.39.07-.25.06-.51.12-.76.19-.39.11-.78.25-1.16.4-.03.03-.77.37-.89.44-.42.22-.83.46-1.23.71-1.78,1.12-3.1,2.29-4.75,3.97-1.45,1.48-2.93,3.25-3.93,4.59-2.83,3.81-5.14,7.94-7.14,12.24-2.68,5.8-4.69,11.91-6.26,18.09-1.6,6.26-2.84,12.59-2.89,19.07-.08,11.08,2.89,22.56,10.22,30.84,6.74,7.62,16.47,11.87,26.76,10.89,10.21-.97,19.91-7.31,25.99-15.57,3.46-4.77,6.37-9.93,8.68-15.35,4.65-10.91,7.01-22.82,7.41-34.65.13-3.67.14-7.35-.2-11Z"/>
          <path class="cls-3" d="m90.83,27.19s-.02,0-.03.01c.16-.05.24-.08.25-.09-.07.03-.15.05-.22.08Z"/>
          <path class="cls-3" d="m79.82,64.97c.01.1.02.21.03.31,0,0,0,0,0,.02-.03-.31-.04-.37-.04-.33Z"/>
          <path class="cls-3" d="m81.9,64.41c-1.65.91-.17,3.44,1.48,2.52,5.55-3.08,12.75-1.24,16.67,3.75.49.62,1.56.51,2.07,0,.61-.61.49-1.45,0-2.07-4.69-5.95-13.56-7.9-20.22-4.21Z"/>
          <path class="cls-3" d="m18.04,41.34c3.96,7.28,4.39,15.61,2.94,23.63-1.48,8.15-4.84,15.86-8.38,23.3-3.74,7.86-7.72,15.6-11.92,23.22-4.2,7.62-8.63,15.12-13.28,22.48-2.29,3.62-4.59,7.24-7.03,10.76-2.24,3.22-4.77,6.36-8.24,8.33-1.74.99-3.56,1.62-5.42,1.99-1.37,4.44-3.04,8.95-5.67,12.76.04.03.07.05.11.09,3.89,3.71,6.66,8.57,7.95,13.78.58,2.32.87,4.73.85,7.12-.02,2.44-.3,5-1.24,7.26-.99,2.39-2.78,4.39-5.3,5.18-2.25.71-4.7.08-6.36-1.59-1.48-1.49-2.29-3.56-2.73-5.58-.55-2.51-.71-5.15-.74-7.71-.04-4.26.48-8.52,1.54-12.65-7.18,4.71-16.09,2.58-23.47-.58-8.02-3.43-15.76-7.71-23.21-12.24-6.53-3.97-14.06-8.16-18.16-14.86-2.05-3.35-3.03-7.5-2.64-11.41.39-3.88,1.93-7.37,3.61-10.83-1.62-1.81-2.86-3.92-3.62-6.32-1.97-6.23-.13-12.97,2.07-18.87,1.78-4.76,4.12-9.46,5.44-14.41-.48-.25-.91-.63-1.24-1.09-2.2-3.08-4.15-6.34-5.67-9.81-3.17-7.22-4.78-15.5-2.3-23.2,1.91-5.93,6.59-10.94,12.27-13.45,5.7-2.52,12.52-2.8,17.7,1.09,2.56,1.92,4.56,4.99,7.33,6.3.97.46,2.17.5,3.3.03,1.26-.53,2.47-1.61,3.34-2.76,2.22-2.92,2.81-6.78,3.86-10.21,1.14-3.75,2.83-7.21,5.57-10.05,4.93-5.12,12.09-7.66,19.07-8.1,8.6-.54,17.07,2.26,24.99,5.28,6.76,2.58,13.61,5.18,19.87,8.84,5.95,3.49,11.47,8.12,14.81,14.26Zm-56.28-22.55c3.68,4.51,7.24,9.11,10.67,13.81,1.24,1.71,2.45,3.45,3.66,5.18,7.77-2.18,15.57-4.23,23.42-6.13-2.83-1.6-5.81-2.98-8.77-4.24-6.83-2.91-13.96-5.8-21.22-7.51-2.54-.6-5.15-1-7.75-1.11Zm-24.18,103.72c8.92-3.05,17.92-5.88,27-8.42,2.39-.67,4.78-1.31,7.18-1.94-.59-.89-1.19-1.77-1.77-2.67-5.51-8.43-10.82-17-15.94-25.68-4.38,1.25-8.75,2.55-13.1,3.91-6.55,2.05-13.05,4.22-19.52,6.52,2.96,5.96,6.08,11.83,9.45,17.57,2.13,3.63,4.36,7.2,6.7,10.71Zm-1.17,3.49c-6.08,2.11-12.13,4.32-18.15,6.61,7.37,3.08,14.92,5.82,22.16,9.03,4.47,1.98,8.87,4.66,13.54,6.35-4.95-5.27-9.56-10.86-13.83-16.7-1.27-1.74-2.51-3.51-3.73-5.29Zm6.82-42.06c3.09-.95,6.19-1.85,9.3-2.74-.83-1.42-1.67-2.83-2.48-4.25-4.5-7.84-8.83-15.77-13.01-23.79,0,0,0,0,0,0-9.76,3.43-19.44,7.1-29.02,10.99.5,1.23.99,2.47,1.5,3.7,3.13,7.54,6.42,15.02,9.95,22.38.22.46.45.91.67,1.36,7.64-2.72,15.34-5.28,23.1-7.65Zm12.2-3.57c4.19-1.17,8.4-2.3,12.62-3.37,8.29-2.1,16.63-4.01,25.01-5.71.02,0,.04,0,.07-.01-4.4-8.31-9.18-16.42-14.32-24.29-1.28-1.96-2.6-3.9-3.93-5.83-11.78,3.35-23.47,7.03-35.05,11.04,1.5,2.88,3.02,5.75,4.56,8.6,3.56,6.59,7.25,13.1,11.03,19.57Zm-20.05-36.86c1.02,2.02,2.05,4.04,3.09,6.06,6.79-2.36,13.61-4.61,20.47-6.74,4.71-1.46,9.44-2.85,14.18-4.21-4.76-6.79-9.79-13.4-15.09-19.78-2.89.21-5.72.85-8.37,2.07-2.82,1.29-5.21,2.94-7.16,5.34-2.06,2.52-3.01,5.95-3.9,9.16-.8,2.85-1.7,5.62-3.21,8.1Zm-35.91-.95c.32.84.65,1.68.97,2.51,2.12,5.48,4.28,10.94,6.48,16.39,3.78-1.54,7.57-3.04,11.38-4.5,5.77-2.22,11.57-4.34,17.4-6.4-.76-1.48-1.51-2.96-2.26-4.45-2.26,2.47-5.59,4.37-9.01,4.13-3.69-.26-6.42-2.46-8.93-4.98-.95-.96-2.16-2.22-3.04-2.83-.58-.4-1.19-.76-1.83-1.05-.2-.09-.63-.25-1.23-.42-1.34-.37-1.85-.43-3.43-.36-.3.01-.6.04-.9.07-.07.02-.59.09-.68.11-.59.11-1.18.26-1.76.44-1.04.31-2.11.78-3.13,1.34Zm-4.56,58.76s.03-.01.05-.02c7.41-3.07,14.88-5.97,22.42-8.7-.6-1.24-1.2-2.48-1.79-3.73-3.54-7.53-6.83-15.17-9.98-22.86-.1-.25-.2-.49-.3-.74-2.72,1.12-5.44,2.25-8.14,3.4-.73.31-1.56.23-2-.52-.36-.62-.2-1.69.52-2,2.84-1.21,5.69-2.39,8.54-3.56-2.47-6.11-4.88-12.24-7.25-18.39-.26.21-.52.42-.76.63-.55.49-1.07,1.01-1.56,1.56-.21.23-.42.47-.62.72-.24.29-.12.13-.4.54-.42.6-.81,1.22-1.15,1.87-.15.28-.29.55-.42.84-.05.11-.1.22-.15.33,0,.02-.02.05-.04.12-1.21,3.16-1.5,6.55-1.2,9.91.6,6.64,3.75,12.91,7.49,18.36.43-.08.86-.08,1.25.03,1.64.45,2.29,2.04,2.04,3.6-.44,2.7-1.32,5.3-2.29,7.85-1.37,3.6-2.97,7.14-4.27,10.78Zm-1.81,14.02c.73,2.69,2.4,5,4.92,6.73,5.22,3.59,10.85,6.44,16.63,9,.18-.2.42-.36.68-.46,6.05-2.33,12.13-4.58,18.25-6.73.38-.13.76-.26,1.14-.39-2.75-4.16-5.37-8.41-7.85-12.73-2.91-5.08-5.63-10.27-8.23-15.52-.67.24-1.34.48-2.01.72-7.7,2.82-15.33,5.82-22.89,8.99-.28,1-.54,2.01-.73,3.03-.07.38-.14.76-.2,1.15-.02.14-.02.13-.06.52-.07.7-.11,1.39-.11,2.09,0,1.54.07,2.22.44,3.59Zm1.54,26.42c1.4-4.04,3.05-7.99,4.64-11.95-1.16-.68-2.29-1.4-3.4-2.15-1.35,2.84-2.53,5.78-2.46,8.92.04,1.86.48,3.58,1.22,5.17Zm2.65,1.93c.55-1.44,1.12-2.88,1.71-4.31,1.1-2.63,2.28-5.22,3.53-7.78-.77-.41-1.54-.83-2.31-1.27-1.55,4.29-3.05,8.61-4.85,12.8.42.68.89,1.34,1.42,1.96.16-.47.31-.94.49-1.41Zm12.99,8.52c.75-1.53,1.52-3.06,2.29-4.59,1.56-3.07,3.17-6.11,4.82-9.13-4.33-1.79-8.62-3.67-12.79-5.8-.1-.05-.19-.1-.29-.15-1.22,2.51-2.39,5.05-3.46,7.63-.6,1.43-1.17,2.86-1.72,4.3-.28.73-.57,1.45-.86,2.17,1.91,1.85,4.06,3.43,6.28,4.9,1.53,1.01,3.07,1.99,4.63,2.96.35-.78.72-1.54,1.1-2.3Zm2.84,4.68c2.76-5.6,5.64-11.13,8.47-16.69-.84-.34-1.67-.67-2.51-1.02-.01.02,0,.04-.02.07-1.65,3.04-3.25,6.11-4.81,9.2-.79,1.56-1.56,3.13-2.33,4.71-.36.73-.7,1.47-1.08,2.19-.02.04-.04.09-.07.13.78.47,1.56.94,2.34,1.41Zm11.58,3.4c.85-1.84,1.7-3.67,2.56-5.5,1.64-3.45,3.27-6.89,4.91-10.34-1.59-.66-3.19-1.31-4.79-1.94-1.56-.62-3.12-1.24-4.68-1.87-2.77,5.66-5.5,11.36-8.35,16.99.16.09.31.19.47.28,2.86,1.67,5.78,3.34,8.74,4.93.36-.85.75-1.69,1.14-2.55Zm2.33,3.96c.55-1.48,1.42-2.9,2.15-4.29.78-1.5,1.56-3,2.35-4.5,1.6-3.07,3.2-6.14,4.81-9.22,0,0,0,0,.01-.02-.96-.42-1.91-.84-2.88-1.24-1.58,3.46-3.15,6.93-4.73,10.39-.84,1.84-1.69,3.68-2.55,5.51-.42.9-.84,1.79-1.28,2.67.61.32,1.22.63,1.84.94.08-.1.17-.19.29-.25Zm15.76,4.34c1.01-1.75,1.96-3.53,2.85-5.35,1.69-3.44,3.22-6.92,4.48-10.54-.26-.11-.53-.21-.79-.33-3.69-1.58-7.19-3.57-10.85-5.23-.38-.17-.77-.33-1.15-.5,0,.03,0,.05-.02.07-1.55,3.1-3.1,6.19-4.66,9.29-.78,1.55-1.55,3.1-2.33,4.65-.69,1.38-1.32,2.9-2.19,4.19.02.11,0,.23-.02.33,2.52,1.24,5.07,2.39,7.66,3.39,1.93.74,3.92,1.38,5.95,1.76.35-.58.71-1.16,1.05-1.75Zm3.67,2.07c.3-.54.75-1.05,1.07-1.55.42-.67.83-1.34,1.21-2.03.8-1.44,1.51-2.94,2.13-4.47,1.14-2.81,1.92-5.76,2.36-8.77-.69-.22-1.37-.46-2.04-.72-1.15,3.64-2.46,7.27-4.1,10.71-.92,1.92-1.91,3.81-2.96,5.66-.21.37-.44.73-.65,1.09.99.1,1.98.13,2.99.07Zm14.02-15.3c-2.18-.19-4.35-.64-6.46-1.28-.44,3.01-1.21,5.97-2.35,8.81-.63,1.57-1.37,3.08-2.21,4.55-.43.75-.89,1.48-1.37,2.2-.18.27-.37.6-.58.91,2.57-.42,4.86-1.71,6.59-3.42,3.15-3.12,4.96-7.41,6.37-11.76Zm-1.25,14.78c-.06.07-.11.14-.17.2.03.18.01.37-.05.56-1.8,5.28-2.65,10.83-2.48,16.41.06,2.17.2,4.39.73,6.5.4,1.6,1,3.18,2.29,4.18.02.01.09.06.11.07.09.06.17.11.26.16.04.02.38.18.39.19.4.15.76.22,1.16.22.86,0,1.69-.33,2.43-.84,1.69-1.17,2.42-3.25,2.79-5.18,1.55-8.06-1.64-16.82-7.45-22.48ZM-4.93,109.53c-5.28,1.17-10.56,2.38-15.8,3.69-.94.23-1.87.48-2.8.72,2.66,3.98,5.35,7.93,8.09,11.85.46.65.11,1.63-.52,2-.72.42-1.55.12-2-.52-2.9-4.15-5.75-8.34-8.56-12.55-8.55,2.24-17.04,4.69-25.46,7.39-2.92.94-5.83,1.9-8.73,2.89,1.62,2.36,3.27,4.7,4.99,6.98,4.62,6.14,9.67,11.96,15.1,17.41.36.05.71.1,1.08.14,3.24.31,6.43-.07,9.24-1.81,2.86-1.78,4.82-4.7,6.66-7.44,6.66-9.98,12.91-20.24,18.72-30.73Zm8.62-16.29c-2.26-5.23-4.67-10.4-7.22-15.5-.63-1.26-1.27-2.52-1.92-3.78-1.28.26-2.57.51-3.85.78-8.37,1.75-16.7,3.71-24.98,5.86-2.93.76-5.84,1.56-8.76,2.37,2.15,3.63,4.32,7.25,6.54,10.84,3.65,5.91,7.4,11.75,11.23,17.54,7.36-1.9,14.77-3.64,22.2-5.25,1.54-2.85,3.07-5.7,4.55-8.58.74-1.43,1.47-2.86,2.2-4.3Zm9.9-22.76c-5.37.88-10.73,1.84-16.07,2.89,2.78,5.42,5.41,10.93,7.87,16.51,2.29-4.59,4.47-9.25,6.31-14.02.68-1.76,1.32-3.56,1.89-5.38Zm2.24-16.62c-.56-6.63-3.79-12.4-8.62-16.77-1.54-1.4-3.23-2.64-4.99-3.78-.11.43-.43.79-1,.93-7.79,1.87-15.54,3.88-23.25,6.03-.04.01-.08.02-.12.04,4.94,7.24,9.58,14.68,13.89,22.32,1.51,2.67,2.97,5.35,4.39,8.06,6.09-1.2,12.21-2.3,18.34-3.28,1.14-4.42,1.75-8.96,1.36-13.54Z"/>
          <path class="cls-3" d="m57.9,123.77c-.79.04-1.46.64-1.46,1.46v4.6c0,.76.67,1.5,1.46,1.46.79-.04,1.46-.64,1.46-1.46v-4.6c0-.76-.67-1.5-1.46-1.46Z"/>
          <path class="cls-3" d="m57.9,136.76c-.79.04-1.46.64-1.46,1.46v4.6c0,.76.67,1.5,1.46,1.46.79-.04,1.46-.64,1.46-1.46v-4.6c0-.76-.67-1.5-1.46-1.46Z"/>
          <path class="cls-3" d="m66.69,132.56h-4.6c-.76,0-1.5.67-1.46,1.46.04.79.64,1.46,1.46,1.46h4.6c.76,0,1.5-.67,1.46-1.46-.04-.79-.64-1.46-1.46-1.46Z"/>
          <path class="cls-3" d="m53.7,132.56h-4.6c-.76,0-1.5.67-1.46,1.46.04.79.64,1.46,1.46,1.46h4.6c.76,0,1.5-.67,1.46-1.46-.04-.79-.64-1.46-1.46-1.46Z"/>
        </g>
      </g>
    </pattern>
  </defs>
  <g id="BG">
    <rect class="cls-4" x="0" y="0" width="2500" height="2000"/>
  </g>
  <g id="Layer_1" data-name="Layer 1">
    <g class="cls-5">
      <rect class="cls-1" x="0" y="0" width="2500" height="2000"/>
    </g>
  </g>
</svg>