<?xml version="1.0" encoding="utf-8"?>
<!-- Generator: Adobe Illustrator 28.0.0, SVG Export Plug-In . SVG Version: 6.00 Build 0)  -->
<svg version="1.1" id="potion-bottle" xmlns="http://www.w3.org/2000/svg" xmlns:xlink="http://www.w3.org/1999/xlink" x="0px"
	 y="0px" viewBox="0 0 90 90" style="enable-background:new 0 0 90 90;" xml:space="preserve">
<style type="text/css">
	.st0{fill:url(#SVGID_1_);}
</style>
<linearGradient id="SVGID_1_" gradientUnits="userSpaceOnUse" x1="9.6041" y1="64.1946" x2="80.6123" y2="-6.8137" gradientTransform="matrix(1 0 0 -1 0 92.0033)">
	<stop  offset="5.557775e-04" style="stop-color:#EBEBEB"/>
	<stop  offset="1" style="stop-color:#000000"/>
</linearGradient>
<path class="st0" d="M90,89c0,0.5-0.4,1-1,1h-3c-0.5,0-1-0.4-1-1s0.4-1,1-1h3C89.6,88,90,88.5,90,89z M4.5,88H1c-0.5,0-1,0.4-1,1
	s0.4,1,1,1h3.5c0.5,0,1-0.4,1-1S5.1,88,4.5,88z M49,8.9c0.5,0,0.9-0.4,0.9-0.9c0-0.5-0.4-0.9-0.9-0.9c-0.5,0-0.9,0.4-0.9,0.9
	c0,0,0,0,0,0C48.1,8.5,48.5,8.9,49,8.9C49,8.9,49,8.9,49,8.9L49,8.9z M50.8,5.8c0.2,0,0.4-0.2,0.4-0.4c0-0.2-0.2-0.4-0.4-0.4
	c-0.2,0-0.4,0.2-0.4,0.4C50.4,5.7,50.6,5.8,50.8,5.8C50.8,5.8,50.8,5.8,50.8,5.8L50.8,5.8z M40.1,7.3c-0.4,0-0.7,0.3-0.7,0.7
	c0,0.4,0.3,0.7,0.7,0.7c0.4,0,0.7-0.3,0.7-0.7v0C40.8,7.6,40.5,7.3,40.1,7.3z M38.2,5.6c-0.1,0-0.2,0.1-0.2,0.2S38.1,6,38.2,6
	s0.2-0.1,0.2-0.2c0,0,0,0,0,0C38.4,5.7,38.3,5.6,38.2,5.6C38.2,5.6,38.2,5.6,38.2,5.6L38.2,5.6z M46.4,32.5c-0.3,0-0.5,0.2-0.5,0.5
	s0.2,0.5,0.5,0.5s0.5-0.2,0.5-0.5l0,0C46.9,32.8,46.7,32.5,46.4,32.5z M42.6,29.2c0.3,0,0.5-0.2,0.5-0.5s-0.2-0.5-0.5-0.5
	s-0.5,0.2-0.5,0.5l0,0C42.1,29,42.3,29.2,42.6,29.2L42.6,29.2z M45.4,30.4c0-0.5,0.4-1,1-1c0.5,0,1,0.4,1,1c0,0.5-0.4,1-1,1
	c0,0,0,0,0,0C45.9,31.4,45.4,31,45.4,30.4L45.4,30.4z M42.4,26.5c0-0.7,0.6-1.3,1.3-1.3c0.7,0,1.3,0.6,1.3,1.3s-0.6,1.3-1.3,1.3
	C43,27.8,42.4,27.2,42.4,26.5L42.4,26.5z M43.4,26.5c0,0.2,0.2,0.3,0.3,0.3c0.2,0,0.3-0.2,0.3-0.3c0-0.2-0.2-0.3-0.3-0.3
	C43.6,26.1,43.4,26.3,43.4,26.5C43.4,26.5,43.4,26.5,43.4,26.5L43.4,26.5z M47.7,32.1c0.1,0,0.2-0.1,0.2-0.2c0-0.1-0.1-0.2-0.2-0.2
	c-0.1,0-0.2,0.1-0.2,0.2C47.5,32,47.6,32.1,47.7,32.1C47.7,32.1,47.7,32.1,47.7,32.1L47.7,32.1z M83.2,89c0,0.5-0.4,1-1,1H9.5
	c-0.5,0-1-0.4-1-1c0-0.5,0.4-1,1-1h5.4c-3.7-3-4.2-8.4-1.2-12.1c3-3.7,8.4-4.2,12.1-1.2c0.3,0.3,0.6,0.5,0.9,0.8
	c1.9,1.9,2.2,4.9,0.7,7.1c2.6-0.9,5.1-2.3,7.1-4.2H34c-2.3,0-4.1-1.9-4.1-4.2c0-2.1,1.6-3.9,3.8-4.1c-0.9-0.8-1.8-1.7-2.5-2.7
	L18.5,50.4c-1.9-2.5-1.4-6,1-7.9l14.6-9.5c1.5-1,2.5-2.7,2.5-4.6v-6.3h-1c-2.3,0-4.2-1.9-4.2-4.2c0,0,0,0,0,0v-3.4
	c0-2.3,1.9-4.2,4.2-4.2H36L34.5,5c-0.4-1.5,0.4-3.1,2-3.5c0.2,0,0.4-0.1,0.5-0.1L51.6,0c1.6-0.1,3,1,3.1,2.6c0,0.1,0,0.3,0,0.4
	l-1.1,7.4h0.8c2.3,0,4.1,1.9,4.2,4.2V18c0,2.3-1.9,4.2-4.1,4.2c0,0,0,0,0,0h-1v6.3c0,1.8,0.9,3.5,2.5,4.5l14.5,9.4
	c2.5,1.9,3,5.4,1.1,8L58.9,67.5c-0.7,1-1.6,1.9-2.5,2.7c2.3,0.2,4,2.2,3.8,4.5c-0.2,2.1-2,3.8-4.1,3.8h-0.5c2,1.9,4.4,3.3,7.1,4.2
	c-1.4-2.2-1.1-5.2,0.7-7.1C66.6,72,72,71.8,75.5,75s3.7,8.7,0.5,12.2c-0.3,0.3-0.6,0.6-0.9,0.8h7.1C82.7,88,83.1,88.5,83.2,89z
	 M40.3,3c1.3,1.9,4,2.4,5.9,1.1c0.6-0.4,1.1-1,1.5-1.8L40.3,3z M36.4,4.5l1.7,6h5.5c-0.2-0.2-0.3-0.5-0.3-0.7c0-0.7,0.6-1.2,1.2-1.2
	c0.7,0,1.2,0.6,1.2,1.2c0,0.3-0.1,0.5-0.3,0.7h6.1l1.1-7.6c0-0.2-0.1-0.5-0.3-0.6C52.3,2,52,1.9,51.8,2l-1.9,0.2
	c-0.9,3.3-4.2,5.3-7.5,4.5c-1.8-0.5-3.3-1.7-4.1-3.4l-1,0.1c-0.3,0-0.5,0.2-0.7,0.4C36.4,3.9,36.3,4.2,36.4,4.5z M54.4,20.2
	c1.2,0,2.2-1,2.2-2.2v0v-3.4c0-1.2-1-2.2-2.2-2.2H35.6c-1.2,0-2.2,1-2.2,2.2V18c0,1.2,1,2.2,2.2,2.2l0,0
	C35.6,20.2,54.4,20.2,54.4,20.2z M36.8,70.1h4.8c-1.6-0.6-3.1-1.7-4.1-3.2c-3.5-5-9.1-13.2-12.1-17.6c-0.8-1.2-0.5-2.9,0.7-3.8
	c0,0,0,0,0,0c2.2-1.3,4.6-2.1,7.2-2.2c0.9,0,1.9,0.1,2.8,0.4c0.8,0.3,1.6,0.6,2.5,0.9c0,0,0,0,0,0c0.1,0,0.1,0.1,0.2,0.1
	c2.3,1.1,4.7,1.8,7.2,2c0.2,0,0.4,0,0.6,0c2.6,0,5.2-0.7,7.4-2.2c1.3-0.8,2.3-2.2,2.7-3.7l7.1,4.6c1.3,0.8,1.6,2.5,0.8,3.7
	c0,0,0,0,0,0c-3,4.4-8.5,12.5-12,17.4c-1,1.5-2.5,2.7-4.2,3.3h4.9c1.6-1,3-2.3,4.1-3.8l12.7-17c1.2-1.6,0.9-3.9-0.7-5.2l-14.5-9.3
	c-2.1-1.4-3.4-3.7-3.4-6.2v-6.3h-13v6.3c0,2.5-1.3,4.8-3.4,6.2l-14.5,9.4c-1.5,1.3-1.8,3.5-0.6,5.1l12.7,17
	C33.8,67.8,35.2,69.1,36.8,70.1z M43.9,66.1c0.3,0,0.5-0.2,0.5-0.5s-0.2-0.5-0.5-0.5s-0.5,0.2-0.5,0.5l0,0
	C43.4,65.9,43.7,66.1,43.9,66.1z M45.9,65.5c0.5,0,1-0.4,1-1c0-0.5-0.4-1-1-1s-1,0.4-1,1l0,0C44.9,65.1,45.3,65.5,45.9,65.5
	L45.9,65.5z M47.5,52.3c0.3,0,0.5-0.2,0.5-0.5s-0.2-0.5-0.5-0.5S47,51.5,47,51.7l0,0C47,52,47.3,52.3,47.5,52.3L47.5,52.3z M50,59.1
	c0.1,0,0.2-0.1,0.2-0.2c0-0.1-0.1-0.2-0.2-0.2c-0.1,0-0.2,0.1-0.2,0.2C49.8,59,49.9,59.1,50,59.1L50,59.1z M56.8,49.6
	c0-0.5-0.4-1-1-1c-0.5,0-1,0.4-1,1c0,0.5,0.4,1,1,1c0,0,0,0,0,0C56.4,50.6,56.8,50.2,56.8,49.6L56.8,49.6z M55.9,51.7
	c-0.3,0-0.5,0.2-0.5,0.5s0.2,0.5,0.5,0.5s0.5-0.2,0.5-0.5l0,0C56.4,52,56.1,51.7,55.9,51.7C55.9,51.7,55.9,51.7,55.9,51.7L55.9,51.7
	z M57.2,51.3c0.1,0,0.2-0.1,0.2-0.2c0-0.1-0.1-0.2-0.2-0.2c-0.1,0-0.2,0.1-0.2,0.2C57,51.2,57.1,51.3,57.2,51.3
	C57.2,51.3,57.2,51.3,57.2,51.3L57.2,51.3z M39.5,54.9c-0.1,0-0.2,0.1-0.2,0.2c0,0.1,0.1,0.2,0.2,0.2c0.1,0,0.2-0.1,0.2-0.2
	C39.7,55,39.6,54.9,39.5,54.9L39.5,54.9z M38.2,55.7c-0.3,0-0.5,0.2-0.5,0.5s0.2,0.5,0.5,0.5s0.5-0.2,0.5-0.5l0,0
	C38.7,55.9,38.5,55.7,38.2,55.7z M35.5,51c0.7,0,1.3-0.6,1.3-1.3s-0.6-1.3-1.3-1.3c-0.7,0-1.3,0.6-1.3,1.3c0,0,0,0,0,0
	C34.2,50.4,34.8,51,35.5,51z M34.3,51.4c-0.3,0-0.5,0.2-0.5,0.5s0.2,0.5,0.5,0.5s0.5-0.2,0.5-0.5l0,0C34.9,51.6,34.6,51.4,34.3,51.4
	C34.3,51.4,34.3,51.4,34.3,51.4L34.3,51.4z M56,76.5c1.2,0,2.2-1,2.2-2.2c0-1.2-1-2.2-2.2-2.2H34c-1.2,0-2.2,1-2.2,2.2
	c0,1.2,1,2.2,2.2,2.2C34,76.5,56,76.5,56,76.5z M76.3,81.4c0-3.7-3-6.7-6.6-6.7c-1.9,0-3.6,0.8-4.9,2.1c-0.7,0.7-1.1,1.7-1.1,2.7
	c0,2.1,1.7,3.9,3.9,3.9s3.9-1.7,3.9-3.9c0-0.5,0.4-1,1-1c0.5,0,1,0.4,1,1c0,0,0,0,0,0c0,3.2-2.6,5.8-5.8,5.8
	c-5.7-0.1-11-2.6-14.7-6.9H37.2c-3.7,4.3-9.1,6.8-14.7,6.9c-3.2,0-5.8-2.6-5.8-5.8c0-0.5,0.4-1,1-1c0.5,0,1,0.4,1,1l0,0
	c0,2.1,1.7,3.9,3.9,3.9s3.9-1.7,3.9-3.9c0-1-0.4-1.9-1.1-2.7c-2.5-2.7-6.7-2.9-9.4-0.3s-2.9,6.7-0.3,9.4c1.3,1.4,3,2.1,4.9,2.1h49.3
	C73.3,88,76.3,85.1,76.3,81.4z M35.9,49.6c0-0.2-0.2-0.3-0.3-0.3c-0.2,0-0.3,0.2-0.3,0.3c0,0.2,0.2,0.3,0.3,0.3
	C35.7,50,35.9,49.8,35.9,49.6z M53.6,38.9L53.6,38.9c-1.8-1.2-4-1.5-6.1-0.9c-2.9,0.9-5.3,2.8-6.9,5.3c1.8,0.8,3.7,1.3,5.7,1.5
	c2.4,0.1,4.7-0.5,6.7-1.8c1-0.5,1.7-1.5,1.8-2.6C54.6,39.8,54.2,39.2,53.6,38.9L53.6,38.9z"/>
</svg>
